<svg xmlns="http://www.w3.org/2000/svg" xmlns:xlink="http://www.w3.org/1999/xlink" width="468" height="335" viewBox="0 0 468 335">
    <defs>
        <path id="a" d="M0 334.867h467.668V0H0z"/>
    </defs>
    <g fill="none" fill-rule="evenodd">
        <path fill="#F6F1F1" d="M349.26 224.982h-94.366c-3.452 0-6.276-2.825-6.276-6.278v-52.785c0-3.452 2.824-6.277 6.276-6.277h94.366c3.452 0 6.278 2.825 6.278 6.277v52.785c0 3.453-2.826 6.278-6.278 6.278M419.094 65.607c0 18.265-14.808 33.071-33.072 33.071-18.265 0-33.072-14.806-33.072-33.071s14.807-33.072 33.072-33.072c18.264 0 33.072 14.807 33.072 33.072M93.265 82.01c11.454-3.715 43.127-15.587 74.224-41.613 1.895-1.586 4.768-1.04 5.942 1.134l13.325 24.688a6.723 6.723 0 0 1-1.861 8.557c-11.897 9.004-45.037 32.52-75.24 39.498a5.017 5.017 0 0 1-5.537-2.516l-13.072-24.22a3.875 3.875 0 0 1 2.22-5.529"/>
        <path fill="#EF8B60" d="M78.53 68.751a8.455 8.455 0 1 1-16.91 0 8.455 8.455 0 0 1 16.91 0M419.224 61.888c0 9.08-7.361 16.441-16.441 16.441-9.08 0-16.441-7.362-16.441-16.44 0-9.081 7.36-16.442 16.44-16.442 9.081 0 16.442 7.36 16.442 16.441"/>
        <path fill="#F5C847" d="M441.214 192.297c0 5.747-4.66 10.407-10.407 10.407-5.748 0-10.408-4.66-10.408-10.407 0-5.748 4.66-10.408 10.408-10.408 5.747 0 10.407 4.66 10.407 10.408M467.668 173.061c0 4.876-3.324 8.828-7.424 8.828-4.1 0-7.423-3.952-7.423-8.828 0-4.875 3.323-8.828 7.423-8.828s7.424 3.953 7.424 8.828M441.214 157.736a7.86 7.86 0 0 1-7.86 7.86 7.86 7.86 0 1 1 7.86-7.86"/>
        <path fill="#26AC67" d="M262.603 84.877L294 87.494a7.677 7.677 0 0 0 7.15-3.563c5.73-9.152 18.048-33.735 11.542-68.01a7.711 7.711 0 0 0-7.571-6.267h-27.262c-4.274 0-7.712 3.476-7.698 7.75.035 10.78-1.8 31.78-13.82 56.397-2.38 4.877.854 10.626 6.262 11.076"/>
        <path fill="#4DB0CF" d="M323.272 79.32a3.526 3.526 0 1 1-7.051.135 3.526 3.526 0 0 1 7.051-.135M12.126 152.1l75.289-8.755a5.003 5.003 0 0 1 5.49 4.026l3.061 15.912a5.004 5.004 0 0 1-4.31 5.912L16.08 178.37a5.005 5.005 0 0 1-5.536-4.13l-2.773-16.333a5.003 5.003 0 0 1 4.355-5.807"/>
        <mask id="b" fill="#fff">
            <use xlink:href="#a"/>
        </mask>
        <path fill="#EF8B60" d="M274.683 211.12h12.87v-18.81h-12.87zM298.443 211.614h12.87v-30.69h-12.87zM322.203 211.614h12.87v-38.61h-12.87z" mask="url(#b)"/>
        <path fill="#26AC67" d="M188.554 236.364s-30.69 6.93-13.86 32.67c2.697 4.126 15.539 10.284 24.75 6.93 12.717-4.631 20.61-21.96 3.96-38.61l-12.87 19.8-1.98-20.79z" mask="url(#b)"/>
        <path fill="#472652" d="M128.267 86.993a1.533 1.533 0 1 0-1.953 1.908c.016.006.08.207.1.328.02.142.031.287.021.43-.025.283-.07.575-.238.83-.288.524-.856.991-1.548 1.322-.683.343-1.497.537-2.306.71-.407.083-.834.125-1.252.177l-1.414.192c-.969.145-1.946.45-2.904.89-.71.396-1.4.89-1.974 1.519-.114-.507-.23-1.013-.34-1.52a91.39 91.39 0 0 1-.968-4.934c.457-.084.9-.233 1.31-.428.7-.356 1.235-.914 1.698-1.46.916-1.138 1.64-2.122 2.542-3.313l.013-.017a1.248 1.248 0 1 0-2.223-.993c-.2 1.008-.97 2.04-1.894 2.54-.473.25-.951.412-1.373.57-.183.06-.358.129-.535.194-.195-1.286-.313-2.579-.43-3.859a39.23 39.23 0 0 1-.112-1.924c.002-.302-.023-.646-.001-.913.045-.235.015-.524.095-.714.094-.447.306-.671.554-.87.25-.194.715-.3 1.216-.338 1.017-.066 2.295.187 3.372.517l.087.027a1.213 1.213 0 0 0 .796-2.29 11.923 11.923 0 0 0-2.122-.644c-.726-.144-1.476-.25-2.293-.188-.801.072-1.709.196-2.535.812-.807.587-1.372 1.538-1.521 2.4-.126.443-.092.836-.133 1.256-.004.394.039.715.056 1.074.057.694.133 1.367.221 2.039.166 1.34.39 2.659.577 3.98l.033.223a5.964 5.964 0 0 0-.6.193c-.686.221-1.331.506-1.972.804-1.28.632-2.416 1.433-3.165 2.776a1.21 1.21 0 0 0 1.886 1.471l.14-.131c.693-.65 1.415-1.552 2.272-2.145.428-.306.914-.536 1.424-.616.12-.028.243-.038.365-.042.268 1.79.527 3.582.753 5.379.332 2.457.665 4.908 1.133 7.345.022.152.051.311.088.48l.013.067.001-.001.018.088a1.483 1.483 0 0 0 2.898-.629l-.007-.035c-.018-.097-.041-.192-.06-.29a6.513 6.513 0 0 1-.1-.822 7.023 7.023 0 0 1 .013-1.091c.069-.712.236-1.383.551-1.978.32-.591.827-1.065 1.409-1.498a7.205 7.205 0 0 1 2.143-.86c.416-.076.765-.15 1.239-.226.466-.083.933-.128 1.401-.22.936-.204 1.881-.424 2.804-.88.912-.427 1.874-1.033 2.517-2.052a4.346 4.346 0 0 0 .693-2.59c-.026-.323-.034-.565-.162-.985l-.317-1.045zM145.131 76.954c-.583-1.534-1-3.13-1.456-4.713-.435-1.59-1.005-3.128-1.648-4.639l-2.038-4.491-.052-.115a1.106 1.106 0 0 0-1.965-.096 55.54 55.54 0 0 1-1.663 2.65c-.576.87-1.18 1.722-1.778 2.576-1.195 1.713-2.38 3.43-3.39 5.26a1.218 1.218 0 0 0 2.043 1.313c1.244-1.68 2.315-3.471 3.375-5.27.529-.9 1.051-1.802 1.604-2.687l.389-.61.773 2.497c.523 1.556 1.119 3.086 1.848 4.563.711 1.486 1.46 2.957 2.042 4.49.6 1.528 1.156 3.071 1.572 4.67a1.22 1.22 0 1 0 2.27-.863c-.75-1.47-1.36-2.995-1.926-4.535M150.574 67.528c-.578-1.87-.814-3.837-.511-5.665.295-1.813 1.147-3.488 2.673-4.202 1.524-.727 3.556-.209 5.058 1.019 1.52 1.234 2.578 3.012 3.252 4.869.641 1.877.864 3.885.561 5.756-.308 1.854-1.274 3.562-2.846 4.21-1.566.655-3.548.096-5.022-1.134-1.502-1.226-2.53-3.008-3.165-4.853m8.994 8.112c1.26-.46 2.344-1.35 3.094-2.402.765-1.054 1.211-2.261 1.453-3.467.48-2.43.069-4.889-.798-7.086-.905-2.19-2.338-4.172-4.26-5.633a9.407 9.407 0 0 0-3.276-1.664c-1.22-.33-2.598-.361-3.888.058-1.285.427-2.41 1.308-3.194 2.368-.799 1.057-1.285 2.282-1.528 3.51-.48 2.472-.082 4.972.848 7.175.945 2.203 2.408 4.181 4.348 5.65.972.725 2.081 1.32 3.32 1.638 1.233.309 2.614.298 3.88-.147M73.913 71.376a8.365 8.365 0 0 0-2.646 2.686 8.395 8.395 0 0 0-2.646-2.686 8.386 8.386 0 0 0 2.646-2.686 8.375 8.375 0 0 0 2.646 2.686m-11.02.155c.003.024 0 .048.005.072 0 .011.008.02.011.033.028.157.079.304.153.44.012.024.025.043.039.066.079.13.174.249.289.35.014.012.03.021.045.034a1.45 1.45 0 0 0 .703.317c4.624.714 5.524 4.184 5.641 6.259-.018.378-.018.74 0 1.083-.013.199-.03.353-.04.43a1.486 1.486 0 0 0 1.474 1.684c.02 0 .04-.01.06-.011.017 0 .03.009.047.009a1.49 1.49 0 0 0 1.475-1.681 6.493 6.493 0 0 1-.04-.431c.018-.343.018-.705 0-1.083.117-2.076 1.016-5.545 5.64-6.259.102-.016.2-.042.292-.075l.001-.001c.154-.057.288-.142.41-.24.016-.014.032-.023.045-.035.115-.101.211-.22.29-.35.013-.022.027-.042.038-.065.074-.137.125-.284.154-.44.002-.013.01-.023.011-.034.003-.024.001-.048.004-.072a1.618 1.618 0 0 0 0-.31c-.003-.024 0-.048-.004-.072-.003-.02-.011-.04-.015-.061a1.492 1.492 0 0 0-.042-.159c-.014-.042-.028-.085-.044-.125a1.586 1.586 0 0 0-.318-.474 1.722 1.722 0 0 0-.22-.182 1.402 1.402 0 0 0-.124-.073 1.421 1.421 0 0 0-.424-.152c-.018-.004-.035-.011-.054-.014-4.624-.714-5.523-4.184-5.64-6.26.018-.377.018-.74 0-1.082.013-.2.029-.354.04-.432a1.485 1.485 0 0 0-1.269-1.669c-.062-.009-.123-.006-.185-.007-.026-.003-.054-.003-.082-.004-.018.001-.037.001-.054.003-.066 0-.131-.002-.197.008a1.484 1.484 0 0 0-1.268 1.674c.005.038.025.201.038.44-.015.315-.015.646-.002.99-.108 2.043-.972 5.619-5.638 6.339-.017.002-.033.009-.05.013a1.31 1.31 0 0 0-.183.047 1.272 1.272 0 0 0-.258.112c-.035.02-.07.04-.103.061a1.763 1.763 0 0 0-.222.181 1.599 1.599 0 0 0-.183.22 1.517 1.517 0 0 0-.138.259c-.02.041-.033.085-.047.128-.017.053-.03.104-.04.158-.005.02-.013.04-.016.061-.004.024-.002.048-.004.071a1.35 1.35 0 0 0 0 .311M434.255 194.425c-.891 2.254-2.774 4.14-5.054 4.985-2.262.9-4.874.74-7.008-.262a9.708 9.708 0 0 1-4.758-4.97c-.908-2.14-1.07-4.678-.221-6.95.827-2.272 2.685-4.2 4.972-5.097 2.262-.949 4.95-.863 7.104.216 2.173 1.025 3.955 2.827 4.883 5.035.91 2.195 1.003 4.79.082 7.043m-3.983-14.299l-.01-.007-.026-.01c-2.864-1.072-6.041-1-8.824.115a12.164 12.164 0 0 0-6.38 6.08c-1.299 2.748-1.476 6.076-.323 8.98 1.13 2.905 3.525 5.287 6.42 6.381 2.886 1.145 6.14 1.001 8.923-.161a12.506 12.506 0 0 0 3.738-2.497 12.17 12.17 0 0 0 2.559-3.696c1.231-2.77 1.32-6.037.187-8.89-1.106-2.845-3.436-5.183-6.264-6.295M459.603 176.766c-1.077 1.446-2.689 2.47-4.453 2.507-1.757.064-3.495-.914-4.578-2.411-1.107-1.5-1.551-3.433-1.479-5.28.117-1.853.702-3.645 1.758-5.064 1.04-1.41 2.547-2.466 4.299-2.579 1.746-.142 3.532.806 4.647 2.31 1.124 1.513 1.6 3.455 1.562 5.333-.06 1.889-.679 3.726-1.756 5.184m1.824-11.778c-1.444-1.876-3.714-3.301-6.277-3.419-2.558-.138-5.109 1.181-6.626 3.151-1.556 1.963-2.264 4.463-2.164 6.862.089 2.406.937 4.766 2.442 6.648a9.393 9.393 0 0 0 2.764 2.355 7.966 7.966 0 0 0 3.584.962c2.545.063 4.99-1.288 6.471-3.221 1.535-1.925 2.21-4.38 2.167-6.744-.057-2.374-.873-4.724-2.36-6.594M432.915 160.912c-1.202 1.238-2.884 2.029-4.656 2.068a6.37 6.37 0 0 1-4.767-1.957c-1.233-1.286-1.813-3.069-1.726-4.767.174-3.4 2.937-6.43 6.493-6.674 1.756-.137 3.578.556 4.83 1.845 1.25 1.297 1.868 3.091 1.816 4.83-.05 1.75-.795 3.41-1.99 4.655m-4.656-13.701c-2.357-.125-4.851.727-6.597 2.448-1.76 1.694-2.752 4.18-2.63 6.597.072 2.425 1.186 4.73 2.878 6.35a9.676 9.676 0 0 0 2.92 1.927 9.696 9.696 0 0 0 3.429.72c2.35.053 4.758-.848 6.46-2.537 1.731-1.659 2.679-4.088 2.614-6.46-.038-2.383-1.113-4.68-2.788-6.286-1.652-1.637-3.919-2.636-6.286-2.76" mask="url(#b)"/>
        <path fill="#472652" d="M126.692 101.866c-4.806 2.253-9.701 4.305-14.698 6.056-1.247.44-2.51.833-3.765 1.252l-3.802 1.121-1.919.488-.96.244-.48.121-.39.078a3.877 3.877 0 0 1-2.901-.77 3.975 3.975 0 0 1-1.004-1.164l-.95-1.741-1.911-3.522-3.824-7.044-3.822-7.044-1.88-3.539-.47-.885-.235-.442-.16-.34a2.752 2.752 0 0 1-.154-1.384c.131-.935.78-1.776 1.648-2.117l3.729-1.25a186.907 186.907 0 0 0 7.57-2.777c5.009-1.952 9.938-4.097 14.806-6.374 9.72-4.585 19.13-9.848 28.07-15.822l3.35-2.245 3.282-2.341c2.215-1.526 4.319-3.202 6.45-4.84 2.154-1.608 4.18-3.38 6.264-5.073l.776-.643.388-.32.194-.16.14-.107a2.614 2.614 0 0 1 1.243-.525c.91-.128 1.89.235 2.46.968.247.289.594.99.915 1.551l.97 1.753 1.931 3.511 3.85 7.03 3.833 7.038 1.904 3.526c.344.624.58 1.082.753 1.632.175.538.245 1.107.247 1.671a5.632 5.632 0 0 1-.981 3.195 5.38 5.38 0 0 1-1.147 1.24c-.477.38-1.046.798-1.57 1.188a306.886 306.886 0 0 1-6.485 4.661c-4.356 3.064-8.823 5.97-13.344 8.776-4.523 2.804-9.092 5.529-13.74 8.109a243.85 243.85 0 0 1-14.181 7.26m29.222-13.32c4.501-2.918 8.908-5.975 13.277-9.078a306.638 306.638 0 0 0 6.484-4.758c.542-.414 1.054-.78 1.624-1.234a7.385 7.385 0 0 0 1.56-1.689 7.694 7.694 0 0 0 1.34-4.348 7.552 7.552 0 0 0-.34-2.277c-.22-.73-.606-1.461-.907-2.006l-1.903-3.526-3.778-7.069-3.764-7.075-1.876-3.541-.932-1.774c-.339-.599-.532-1.134-1.096-1.91-1.059-1.406-2.881-2.15-4.627-1.945a5.112 5.112 0 0 0-2.43.955l-.261.194-.195.154-.392.31-.782.617c-2.095 1.631-4.13 3.34-6.292 4.886-2.133 1.583-4.263 3.167-6.454 4.667l-3.26 2.286-3.328 2.188c-4.435 2.92-8.98 5.669-13.571 8.335-2.33 1.275-4.625 2.614-6.99 3.82-2.335 1.267-4.707 2.46-7.087 3.643a224.972 224.972 0 0 1-14.541 6.512c-2.463.992-4.94 1.953-7.44 2.838l-1.877.66-.942.321c-.32.112-.59.19-1.032.372-1.614.668-2.795 2.246-3.006 3.962a5.04 5.04 0 0 0 .324 2.548c.087.188.187.406.272.565l.24.439.482.879 1.926 3.513 3.79 7.062 3.79 7.062 1.896 3.53.96 1.782a6.3 6.3 0 0 0 1.588 1.856 6.193 6.193 0 0 0 4.637 1.25c.196-.032.42-.07.591-.111l.493-.122.983-.245 1.968-.487 3.895-1.112c1.281-.417 2.574-.808 3.848-1.246 5.105-1.742 10.093-3.787 14.98-6.029 4.894-2.233 9.665-4.717 14.355-7.333a246.934 246.934 0 0 0 13.8-8.29M411.294 85.868c-.128 4.307-.697 8.6-1.827 12.73-1.16 4.113-2.896 8.084-5.451 11.48-1.76 2.418-3.948 4.478-6.385 6.186.348-1.243.537-2.514.617-3.787.07-1.287.012-2.57-.136-3.839-.066-.635-.198-1.256-.296-1.886a59.613 59.613 0 0 0-.435-1.85 1.41 1.41 0 0 0-2.379-.642l-.077.08c-.92.95-2.17 1.93-3.391 2.747-1.243.837-2.565 1.56-3.91 2.236-1.3.613-2.621 1.193-3.993 1.642.017-.022.036-.042.052-.064.542-.648 1.026-1.338 1.54-2.005l1.398-2.102c1.808-2.837 3.211-5.926 4.204-9.137l.388-1.2c.11-.406.19-.82.286-1.228.17-.824.401-1.637.517-2.47.202-1.67.46-3.337.44-5.023.121-1.687-.076-3.359-.2-5.039-.021-.846-.23-1.663-.365-2.493l-.438-2.488a1.212 1.212 0 0 0-.985-.985 17.663 17.663 0 0 1-3.53-2.618c-1.15-1.116-2.121-2.406-2.921-3.792-1.583-2.787-2.29-6.062-2.026-9.289.162-1.61.557-3.192 1.178-4.689a15.435 15.435 0 0 1 2.588-4.083 15.436 15.436 0 0 1 8.148-4.841c6.213-1.49 13.077.856 17.027 6.01a15.166 15.166 0 0 1 2.287 4.257c.52 1.536.798 3.157.819 4.786.078 3.258-.981 6.519-2.897 9.104a1.14 1.14 0 0 0-.054.08c-.042.066-.053.14-.08.21a1.193 1.193 0 0 0-.43 1.088l.009.052c.618 4.186.882 8.571.708 12.862m1.763-12.827c.027-.036.067-.058.092-.097l.004-.008a19.409 19.409 0 0 0 2.942-10.488c-.016-1.838-.358-3.652-.856-5.42-.526-1.767-1.38-3.417-2.375-4.972-1-1.563-2.301-2.922-3.742-4.103-.713-.606-1.5-1.113-2.303-1.6-.837-.42-1.665-.869-2.557-1.17-.868-.36-1.788-.581-2.703-.788-.93-.139-1.858-.294-2.799-.297-.936-.077-1.873.033-2.807.09-.924.163-1.85.296-2.744.587-3.615.997-6.79 3.216-9.168 6.014a20.982 20.982 0 0 0-2.892 4.687 21.26 21.26 0 0 0-1.42 5.326c-.395 3.658.25 7.485 2.055 10.752a17.902 17.902 0 0 0 7.434 7.284l.407 1.796c.158.775.392 1.542.439 2.332.164 1.574.376 3.15.294 4.734.051 3.169-.553 6.319-1.496 9.334a32.766 32.766 0 0 1-4.154 8.512l-1.402 1.917c-.513.603-.995 1.232-1.527 1.814-1.036 1.166-2.201 2.316-3.33 3.239l-.007.005a1.357 1.357 0 0 0 1.11 2.387c1.602-.297 3.206-.635 4.763-1.148 1.571-.467 3.09-1.102 4.587-1.78 1.493-.694 2.911-1.543 4.28-2.47a31.689 31.689 0 0 0 2.005-1.504c.071.334.14.669.184 1.005.17 1.117.258 2.242.235 3.36-.034 1.114-.156 2.224-.417 3.293-.13.533-.285 1.061-.487 1.561a8.386 8.386 0 0 1-.66 1.354l-.075.115a1.179 1.179 0 0 0 1.596 1.646c1.958-1.168 3.89-2.4 5.585-3.937.45-.353.837-.773 1.25-1.166.403-.402.826-.788 1.191-1.225l1.14-1.272 1.048-1.349c2.725-3.652 4.665-7.822 5.958-12.141 1.265-4.332 1.93-8.807 2.138-13.285.083-2.24.048-4.48-.093-6.715-.128-2.08-.343-4.118-.723-6.21M230.057 76.191a1.213 1.213 0 0 0 1.74 1.69c2.54-2.51 4.41-5.287 6.161-8.212l1.262-2.207 1.087-2.294c.769-1.51 1.32-3.11 1.939-4.68 2.356-6.337 3.591-13 4.248-19.67.103-1.673.214-3.346.343-5.02.074-1.675.005-3.35.014-5.027.106-3.362-.319-6.69-.532-10.04l-.098-1.255-.192-1.241-.383-2.483c-.248-1.658-.542-3.309-.811-4.964-.604-2.657-1.278-5.298-1.962-7.937 3.053-.038 6.104-.12 9.156-.177 3.668-.098 7.336-.146 11.005-.187 3.669-.03 7.337-.019 11.005-.012 3.668.033 7.336.067 11.004.18l6.103.054 3.05.009 1.526.004.728.006a3.506 3.506 0 0 1 2.467 1.122c.255.27.462.57.621.919l.599 1.367c.79 1.83 1.476 3.708 2.109 5.605 1.233 3.807 2.153 7.715 2.806 11.669.562 3.963.914 7.972.792 11.979l-.089 3.002-.31 2.988c-.125.993-.154 1.998-.358 2.98l-.556 2.95c-.306 1.98-.92 3.89-1.443 5.817-.463 1.947-1.23 3.8-1.914 5.674-2.766 7.246-6.589 14.035-11.014 20.438-7.345-.308-14.69-.596-22.03-1.014-3.798-.239-7.6-.44-11.397-.712-3.797-.257-7.594-.53-11.387-.86l-.062-.004a1.215 1.215 0 0 0-.085 2.428c3.805.133 7.607.324 11.408.528 3.801.192 7.598.453 11.398.676 7.597.493 15.184 1.125 22.774 1.73h.01c.446.035.897-.159 1.174-.55 2.384-3.368 4.826-6.713 6.751-10.389.496-.908 1.023-1.8 1.491-2.72l1.273-2.837 1.27-2.834c.417-.947.688-1.955 1.038-2.928 2.742-7.816 4.14-16.078 4.247-24.328.147-4.13-.254-8.252-.744-12.347-.608-4.085-1.497-8.127-2.715-12.08-.625-1.972-1.308-3.926-2.103-5.844l-.605-1.436A5.966 5.966 0 0 0 297.48.262a5.605 5.605 0 0 0-.96-.1l-.797-.004-1.525.004-3.051.008-6.103.056c-3.668.11-7.336.146-11.004.179-3.668.007-7.336.019-11.005-.013-3.67-.04-7.337-.088-11.005-.186-3.668-.07-7.337-.19-11.005-.206a1.433 1.433 0 0 0-1.4 1.767l.016.07 1.143 4.78c.393 1.59.824 3.172 1.198 4.765.292 1.61.56 3.224.873 4.83l.458 2.413.23 1.207.135 1.217.549 4.878c.072.814.224 1.626.233 2.444l.07 2.45c.021 1.635.121 3.274.08 4.906-.085 1.633-.19 3.264-.301 4.895-.609 6.502-2.027 12.93-4.367 18.992-.622 1.5-1.174 3.03-1.937 4.463l-1.072 2.18-1.19 2.114c-1.607 2.771-3.517 5.499-5.606 7.735l-.08.085zM221.526 22.247c.879.267 1.603.765 2.206 1.444.302.34.589.701.936.972.35.268.733.486 1.151.651.852.308 1.668.67 2.324 1.27.675.572 1.317 1.193 2.147 1.533a1.24 1.24 0 0 0 1.352-2.019c-.63-.638-1.45-.995-2.235-1.403-.805-.378-1.45-.994-2.059-1.663a4.706 4.706 0 0 0-1.04-.817c-.383-.218-.827-.345-1.256-.495-.857-.3-1.594-.78-2.175-1.492a1.27 1.27 0 1 0-1.351 2.019M215.714 40.999c1.081-.268 2.163-.257 3.244-.029.54.114 1.08.256 1.621.287a7.047 7.047 0 0 0 1.623-.1c1.08-.218 2.161-.37 3.243-.237 1.081.1 2.162.259 3.243.079a1.232 1.232 0 0 0 0-2.429c-1.08-.18-2.162-.02-3.243.077-1.082.134-2.162-.018-3.243-.235a7.103 7.103 0 0 0-1.623-.101c-.54.032-1.08.173-1.621.288-1.081.228-2.163.238-3.244-.029a1.25 1.25 0 1 0 0 2.428M317.487 28.222c.89-.187 1.644-.688 2.423-1.13.764-.475 1.642-.69 2.547-.843a4.826 4.826 0 0 0 1.265-.437c.397-.206.75-.513 1.113-.794.728-.563 1.541-.925 2.465-1.033a1.268 1.268 0 1 0-.963-2.23c-.712.599-1.534.942-2.442 1.086-.454.072-.92.118-1.34.266-.42.15-.817.356-1.187.622-.732.552-1.489 1.045-2.36 1.276-.857.263-1.738.47-2.484.988a1.238 1.238 0 0 0 .963 2.23M317.182 41.989c.876.273 1.627.804 2.35 1.393.368.283.763.507 1.184.68.423.168.893.236 1.351.33.916.188 1.739.572 2.44 1.206a1.266 1.266 0 1 0 1.053-2.189c-.933-.152-1.746-.555-2.465-1.153-.36-.3-.707-.625-1.102-.85a5.045 5.045 0 0 0-1.27-.5c-.912-.196-1.796-.453-2.556-.966-.775-.482-1.524-1.02-2.419-1.25a1.24 1.24 0 0 0-1.053 2.189c.74.555 1.627.804 2.487 1.11" mask="url(#b)"/>
        <path fill="#472652" d="M255.079 39.137c2.888.175 5.777.017 8.665-.079a70.265 70.265 0 0 1 4.334-.017c1.444.04 2.888.17 4.333.248 1.444.107 2.889.135 4.332.104 1.445-.03 2.889-.176 4.333-.286a51.388 51.388 0 0 1 8.667.03 1.218 1.218 0 1 0 0-2.43 51.284 51.284 0 0 1-8.667.03c-1.444-.11-2.888-.256-4.333-.285a45.535 45.535 0 0 0-4.332.104c-1.445.078-2.889.207-4.333.248-1.445.04-2.89.03-4.334-.019-2.888-.096-5.777-.252-8.665-.078a1.218 1.218 0 0 0 0 2.43M273.374 46.263c-1.017-.11-2.033-.256-3.05-.286a22.756 22.756 0 0 0-3.049.104c-1.016.079-2.032.208-3.049.248a31.017 31.017 0 0 1-3.05-.018c-2.032-.096-4.064-.253-6.097-.078a1.22 1.22 0 0 0 0 2.43c2.033.175 4.065.017 6.098-.079a30.714 30.714 0 0 1 3.05-.017c1.016.04 2.032.17 3.048.248 1.017.107 2.034.134 3.05.104 1.016-.03 2.032-.176 3.049-.286 2.032-.227 4.065-.238 6.098.03a1.226 1.226 0 1 0 0-2.43c-2.033.267-4.066.257-6.098.03M251.137 58.365a1.22 1.22 0 0 0-1.11 1.11 1.22 1.22 0 0 0 1.11 1.32c2.029.174 4.057.017 6.085-.079a30.875 30.875 0 0 1 3.042-.018c1.015.041 2.029.17 3.042.248 1.015.107 2.029.135 3.044.104 1.013-.03 2.028-.175 3.042-.285 2.028-.228 4.057-.238 6.084.03a1.226 1.226 0 1 0 0-2.43c-2.027.267-4.056.257-6.084.03-1.014-.11-2.029-.257-3.042-.286a22.499 22.499 0 0 0-3.044.104c-1.013.078-2.027.208-3.042.248a30.572 30.572 0 0 1-3.042-.018c-2.028-.096-4.056-.253-6.085-.078M254.984 25.088a1.217 1.217 0 0 0 1.557-.73c.75-2.072 1.339-4.192 1.904-6.319.225.804.433 1.615.64 2.424a1.27 1.27 0 0 0 2.324.328l.091-.156c.511-.87 1.026-1.738 1.491-2.631.107.416.205.835.29 1.257.352 1.645.658 3.3.806 4.987a1.22 1.22 0 1 0 2.382-.477c-.512-1.613-.865-3.259-1.173-4.913-.327-1.651-.46-3.34-.662-5.015a1.32 1.32 0 0 0-2.43-.539l-.123.196a29.943 29.943 0 0 0-1.59 2.919c-.04.08-.074.165-.112.246-.358-.958-.662-1.934-.981-2.905a1.105 1.105 0 0 0-2.099.001l-.01.03c-1.074 3.275-2.267 6.513-3.074 9.87-.143.594.18 1.214.77 1.427M371.6 204.473c-.062-8.689-.069-17.378.153-26.067l.064-22.127.011-11.063.001-1.383.001-.692-.034-.797a8.746 8.746 0 0 0-.86-3.107 8.832 8.832 0 0 0-4.63-4.306 8.559 8.559 0 0 0-3.152-.625l-2.784.002-5.532.017-11.063.033-22.128.053-22.127.039-11.063.017-11.064-.052-44.255-.2c-14.75-.032-29.503-.17-44.254-.114-14.752.01-29.503.185-44.255.253l-5.532.033-1.382.008-.702.008-.796.046a8.666 8.666 0 0 0-7.171 5.552 8.74 8.74 0 0 0-.557 3.1l.016 2.765c.015 1.539.011 3.077.017 4.616a1.181 1.181 0 0 0-.147.537c0 .206.062.391.151.563.016 5.47.005 10.94.002 16.412-.03 14.75-.004 29.503-.162 44.254-.088 3.387-.055 6.773-.076 10.16l.111 10.16c.05 6.774.135 13.548-.02 20.32l-.231 10.16c-.024 3.387-.083 6.774-.018 10.161.013 3.387.155 6.773.24 10.16.056 1.693.1 3.387.12 5.08.01.871.103 1.912.408 2.813.302.916.74 1.786 1.307 2.563a8.48 8.48 0 0 0 4.673 3.198c.463.133.94.21 1.417.273l.721.044.644.005 2.54.003 10.16.014 20.321.027 40.64.12h.008a1.214 1.214 0 0 0-.007-2.429l-40.64.12-20.322.028-10.16.013-2.54.003-.626-.002-.547-.018c-.362-.044-.728-.078-1.078-.186a6.407 6.407 0 0 1-3.543-2.43 6.117 6.117 0 0 1-.963-1.953c-.209-.72-.247-1.387-.237-2.206.02-1.693.064-3.387.118-5.08.086-3.387.228-6.773.242-10.16.065-3.387.005-6.774-.018-10.16l-.23-10.16c-.157-6.773-.071-13.547-.022-20.32l.111-10.16c-.021-3.388.012-6.774-.075-10.161-.158-14.751-.133-29.503-.162-44.254-.003-5.248-.013-10.496 0-15.744 17.829.145 35.659-.012 53.487-.07 9.09 0 18.18-.104 27.27-.02 9.09.024 18.18.16 27.27.237 4.546.052 9.09.084 13.635.09 4.545.014 9.09.042 13.635.003 9.09-.017 18.18-.164 27.27-.275 18.179-.21 36.36-.227 54.539.03h.034a1.214 1.214 0 1 0-.035-2.428c-18.179.255-36.359.239-54.538.028-9.09-.11-18.18-.256-27.27-.275-4.545-.038-9.09-.011-13.635.004-4.545.005-9.09.037-13.634.09-9.09.076-18.18.213-27.271.237-9.09.084-18.18-.02-27.27-.021-17.827-.058-35.652-.215-53.48-.07.007-1.314.003-2.629.014-3.944l.017-2.766a6.42 6.42 0 0 1 3.542-5.703c.7-.35 1.46-.57 2.237-.646l.585-.024h.681l1.382.009 5.532.032c14.752.069 29.503.245 44.255.254 14.751.055 29.503-.083 44.254-.114l44.255-.2 11.064-.053 11.063.02 22.127.037 22.128.053 11.063.034 5.532.016 2.747.014c.77.005 1.533.167 2.24.457a6.271 6.271 0 0 1 3.266 3.076 6.29 6.29 0 0 1 .597 2.195l.027.584.001.692.001 1.383.013 11.063.063 22.127c.222 8.689.215 17.378.152 26.067-.046 8.689-.382 17.378-.398 26.067-.06 4.345.02 8.69.027 13.033l.204 13.035c.088 4.344.088 8.689.135 13.033l-.056 13.033-.015 3.259-.01 1.63-.007.814-.003.407-.021.342a6.245 6.245 0 0 1-2.52 4.651 6.299 6.299 0 0 1-2.453 1.11c-.221.047-.448.066-.67.104l-.68.03-1.628-.002-6.517-.01-26.067.005-50.965.065a1.212 1.212 0 0 0-2.168.466c-.01.046-.016.091-.026.137a1.18 1.18 0 0 0-.188.61c0 .07.028.13.038.197-.582 3.307-.605 6.602-.443 9.91.096 1.808.238 3.61.427 5.417.183 1.806.408 3.624.8 5.425.37 1.805.933 3.59 1.754 5.272.814 1.685 1.878 3.253 3.094 4.678 1.245 1.404 2.585 2.704 4.05 3.862 1.48 1.145 3.087 2.09 4.749 2.975a1.218 1.218 0 0 0 1.725-.676 1.218 1.218 0 0 0-.752-1.553l-.04-.014c-1.582-.55-3.098-1.321-4.437-2.344a15.806 15.806 0 0 1-3.407-3.685c-.927-1.407-1.63-2.934-2.307-4.466-.684-1.531-1.244-3.128-1.786-4.748-.509-1.628-.971-3.298-1.224-5.013a34.29 34.29 0 0 1-.374-5.189c.012-2.95.274-5.925.576-8.83l50.904.066 26.067.004 6.517-.009 1.628-.003.947-.055c.314-.053.63-.09.938-.16a8.772 8.772 0 0 0 3.413-1.606c2.022-1.523 3.298-3.974 3.397-6.492l.018-.47-.003-.408-.005-.815-.011-1.63-.014-3.258-.057-13.033c.047-4.344.047-8.69.135-13.033l.204-13.035c.007-4.344.087-8.688.027-13.033-.015-8.69-.35-17.378-.398-26.067" mask="url(#b)"/>
        <path fill="#472652" d="M218.41 187.013a106.13 106.13 0 0 1 6.895.185 1.216 1.216 0 1 0 0-2.428c-2.298.134-4.596.2-6.894.186a112.03 112.03 0 0 1-6.895-.157c-2.298-.11-4.596-.255-6.895-.285a114.392 114.392 0 0 0-6.894.104c-4.597.208-9.193.34-13.789.23-4.597-.096-9.193-.253-13.79-.078a1.22 1.22 0 0 0-1.168 1.168 1.214 1.214 0 0 0 1.168 1.26c4.597.175 9.193.019 13.79-.077 4.596-.11 9.192.022 13.789.23 2.298.107 4.596.135 6.894.104 2.299-.03 4.597-.176 6.895-.286 2.298-.126 4.597-.17 6.895-.156M197.586 193.94c-1.525-.11-3.048-.255-4.573-.286a51.084 51.084 0 0 0-4.573.104c-1.524.08-3.048.208-4.572.248-1.525.041-3.05.031-4.574-.017-3.048-.096-6.098-.254-9.146-.079a1.217 1.217 0 0 0 0 2.43c3.048.175 6.098.018 9.146-.078a78.281 78.281 0 0 1 4.574-.018c1.524.04 3.048.17 4.572.248 1.525.107 3.049.134 4.573.104 1.525-.03 3.048-.176 4.573-.286a57.101 57.101 0 0 1 9.146.03 1.219 1.219 0 1 0 0-2.43 57.101 57.101 0 0 1-9.146.03M170.148 205.564c4.597.176 9.193.018 13.79-.078 4.596-.109 9.192.022 13.789.23 2.298.108 4.596.136 6.894.105 2.299-.03 4.597-.176 6.895-.286 2.298-.127 4.597-.17 6.895-.156 2.298-.016 4.596.05 6.894.185a1.218 1.218 0 1 0 0-2.43c-2.298.136-4.596.203-6.894.187-2.298.015-4.597-.029-6.895-.156-2.298-.11-4.596-.256-6.895-.285-2.298-.031-4.596-.003-6.894.103-4.597.208-9.193.34-13.789.23-4.597-.096-9.193-.252-13.79-.078a1.215 1.215 0 0 0 0 2.43M294.606 248.881c-1.525-.109-3.048-.255-4.573-.285a50.717 50.717 0 0 0-4.573.104c-1.524.078-3.048.207-4.572.248-1.525.04-3.05.031-4.574-.018-3.048-.096-6.098-.253-9.146-.077a1.216 1.216 0 0 0 0 2.428c3.048.175 6.098.018 9.146-.077 1.524-.05 3.049-.059 4.574-.019 1.524.042 3.048.17 4.572.248 1.525.107 3.049.135 4.573.104 1.525-.03 3.048-.176 4.573-.285a57.101 57.101 0 0 1 9.146.029 1.219 1.219 0 1 0 0-2.428 57.217 57.217 0 0 1-9.146.028M294.747 260.658c2.298.107 4.596.135 6.894.104 2.299-.03 4.597-.176 6.895-.285 2.298-.128 4.597-.171 6.895-.156 2.297-.016 4.596.05 6.894.185a1.217 1.217 0 1 0 0-2.428c-2.298.133-4.597.2-6.894.185a112.03 112.03 0 0 1-6.895-.157c-2.298-.109-4.596-.254-6.895-.285-2.298-.03-4.596-.003-6.894.104-4.597.208-9.194.34-13.79.23-4.596-.095-9.192-.253-13.789-.078a1.215 1.215 0 0 0 0 2.428c4.597.176 9.193.02 13.79-.076 4.595-.11 9.192.021 13.789.23M91.33 169.75c-.345.939-.948 1.775-1.696 2.439a6.23 6.23 0 0 1-2.653 1.33c-.458.09-1.058.16-1.641.231l-1.743.214a1791.213 1791.213 0 0 1-27.892 3.236c-4.651.522-9.297 1.084-13.942 1.65l-13.935 1.717-13.927 1.776-3.455.433c-.97.092-1.965-.026-2.864-.411-1.813-.739-3.213-2.431-3.551-4.369l-1.76-13.857a6.156 6.156 0 0 1 .331-2.922 6.192 6.192 0 0 1 1.677-2.413 6.148 6.148 0 0 1 2.63-1.297c.45-.086 1.051-.154 1.634-.22l1.744-.206c9.293-1.116 18.6-2.122 27.899-3.186 4.651-.52 9.3-1.057 13.946-1.622 4.647-.555 9.295-1.099 13.935-1.707l13.923-1.815 3.449-.456c.947-.098 1.924.007 2.811.378 1.788.707 3.2 2.358 3.557 4.281l.069.36.06.434.117.87.236 1.739.458 3.48.903 6.962a6.203 6.203 0 0 1-.32 2.951zm.807-17.23c-.438-2.707-2.36-5.116-4.901-6.195-1.264-.56-2.681-.761-4.056-.646l-3.52.38-13.948 1.608c-4.65.532-9.292 1.13-13.935 1.714-4.645.575-9.286 1.178-13.925 1.8-9.28 1.217-18.553 2.493-27.84 3.657l-1.74.223c-.579.074-1.14.134-1.84.273a8.38 8.38 0 0 0-3.584 1.815A8.41 8.41 0 0 0 .54 160.43a8.374 8.374 0 0 0-.477 3.98l.836 6.97.418 3.486.21 1.741.103.871.054.437.085.502c.457 2.694 2.389 5.06 4.906 6.108 1.252.546 2.65.735 4.005.614l3.513-.406 13.943-1.645 13.937-1.704c4.644-.575 9.288-1.153 13.927-1.773a1806.249 1806.249 0 0 1 27.847-3.606l1.742-.213c.578-.07 1.142-.13 1.833-.264a8.28 8.28 0 0 0 3.559-1.782 8.46 8.46 0 0 0 2.288-3.256 8.338 8.338 0 0 0 .489-3.95l-1.622-14.02z" mask="url(#b)"/>
        <path fill="#472652" d="M17.778 172.858a2.98 2.98 0 0 1-2.359-.96c-.599-.656-.812-1.554-.729-2.359a3.84 3.84 0 0 1 .978-2.11c.528-.572 1.239-1.046 2.11-1.16.86-.13 1.803.188 2.423.848.615.669.868 1.576.817 2.422-.121 1.68-1.454 3.215-3.24 3.319m0-8.959c-1.464-.122-3.072.363-4.19 1.45-1.126 1.066-1.75 2.666-1.631 4.19.181 3.107 2.885 5.536 5.821 5.592 1.457.05 2.979-.484 4.052-1.54 1.107-1.024 1.678-2.575 1.618-4.052-.043-1.49-.75-2.901-1.792-3.878a6.327 6.327 0 0 0-3.878-1.762M80.515 160.907c-1.924.34-3.856.612-5.796.803-1.938.22-3.881.384-5.833.463-1.95.097-3.905.158-5.846.335a82.384 82.384 0 0 0-5.806.722c-1.93.284-3.856.619-5.79.865-1.935.247-3.874.443-5.818.601-3.887.317-7.782.574-11.64 1.16a1.22 1.22 0 0 0-1.032 1.277c.041.67.618 1.18 1.288 1.138 3.896-.237 7.757-.806 11.624-1.315 1.935-.254 3.872-.47 5.814-.636 1.944-.165 3.896-.243 5.843-.371 1.95-.1 3.892-.28 5.827-.516 1.936-.237 3.86-.587 5.786-.903a80.805 80.805 0 0 1 5.8-.774 76.484 76.484 0 0 1 5.836-.435 1.217 1.217 0 1 0-.256-2.415M231.618 332.17c-5.403.255-10.807.24-16.211.029a432.41 432.41 0 0 1-1.96-.084c.51-.337 1.014-.686 1.5-1.062 1.466-1.157 2.805-2.458 4.05-3.862 1.216-1.424 2.282-2.993 3.095-4.678.82-1.682 1.383-3.467 1.753-5.271.393-1.801.617-3.62.8-5.427.19-1.806.332-3.61.428-5.416.177-3.622.14-7.229-.619-10.853a1.214 1.214 0 0 0-2.396.38l.008.056c.365 3.381.721 6.89.735 10.358a34.27 34.27 0 0 1-.374 5.188c-.253 1.715-.715 3.385-1.225 5.014-.541 1.62-1.102 3.216-1.785 4.749-.678 1.531-1.38 3.059-2.306 4.466a15.81 15.81 0 0 1-3.409 3.684c-1.337 1.022-2.854 1.795-4.436 2.345l-.047.016c-.056.02-.111.044-.166.073-.04.022-.065.06-.103.085-.55-.015-1.099-.04-1.648-.047-2.702-.03-5.405-.003-8.106.104-5.404.21-10.807.34-16.212.231-5.403-.097-10.806-.253-16.21-.078a1.22 1.22 0 0 0-1.177 1.175c-.02.67.506 1.232 1.176 1.253 5.405.176 10.808.02 16.211-.077 5.405-.11 10.808.02 16.212.23 2.701.107 5.404.134 8.106.104 2.701-.03 5.403-.176 8.105-.285 5.404-.211 10.808-.227 16.211.028a1.216 1.216 0 1 0 0-2.428M399.943 65.068c-.165-1.114-.148-2.255-.18-3.388-.011-1.137-.166-2.252-.398-3.356-.25-1.101-.568-2.192-.805-3.295l-.03-.14a1.103 1.103 0 0 0-2.044-.293c-.75 1.367-1.642 2.645-2.543 3.917-.89 1.28-1.77 2.565-2.48 3.957a1.22 1.22 0 0 0 2.06 1.288c.941-1.248 1.71-2.603 2.47-3.963.175-.317.356-.629.532-.945.1 1.088.27 2.166.578 3.224.298 1.094.645 2.18.811 3.295.183 1.11.322 2.228.308 3.368a1.23 1.23 0 1 0 2.403-.356c-.345-1.087-.536-2.197-.682-3.313M285.114 193.227c.094 2.647.206 5.32.237 8-.002 1.562.034 3.149.018 4.703a211.993 211.993 0 0 1-.053 4.382c-1.415-.024-2.83-.05-4.244-.093l-2.029-.059c-2.011-.103-4.01-.166-6.019-.189l-.027-8.526c.025-1.632.018-3.266.088-4.897.036-1.2.082-2.401.138-3.602 1.997.102 3.993.209 5.99.262 1.966.049 3.934.055 5.901.02m17.373-10.608c1.934.058 3.87.073 5.803.076.02 1.975.07 3.954.11 5.944.077 2.482.103 4.965.134 7.456l.002 7.442c-.02 2.261-.042 4.52-.094 6.74l-1.089-.007c-1.752-.02-3.504-.01-5.257.016-1.274.02-2.549.033-3.823.047-.708-.02-1.42-.022-2.128-.03l.011-6.358c.01-2.542-.008-5.084.035-7.625.017-2.54.083-5.08.16-7.622.047-2.088.145-4.175.23-6.262l2.307.088c1.2.055 2.4.062 3.6.095m16.886 9.522c.062-6.124.278-12.246.494-18.368 1.955.066 3.911.13 5.868.161 1.923.047 3.847.076 5.771.087-.006 2.72.035 5.442.077 8.18.066 3.23.11 6.471.122 9.71.03 3.248-.01 6.466-.013 9.702-.035 3.155-.065 6.313-.138 9.415a320.723 320.723 0 0 1-4.974-.135c-.619-.034-1.241-.073-1.855-.1a147.738 147.738 0 0 0-4.072-.144l-1.387-.065c.035-6.147.025-12.296.107-18.443m-47.672 20.353l.036.001c3.01.077 6.063.06 9.078-.003h.223c4.473-.007 8.946.09 13.418.238.117.04.237.081.369.085l.033.001c1.125.032 2.259.044 3.393.048 1.268.05 2.537.1 3.806.155 1.751.076 3.502.135 5.254.165 1.751.038 3.503.09 5.256.077 2.683.025 5.367-.028 8.052-.08 1.683.014 3.37.013 5.05-.014 1.144-.016 2.281-.043 3.413-.074a301.679 301.679 0 0 1 15.11.37 1.216 1.216 0 0 0-.054-2.43c-3.627.08-7.251.086-10.874.033.026-2.774.07-5.523.117-8.269.092-3.347.144-6.712.266-10.049.107-3.345.243-6.687.403-10.04.141-3.357.298-6.73.358-10.11a1.447 1.447 0 0 0-1.402-1.472h-.03c-2.4-.074-4.8-.097-7.2-.108-2.401-.028-4.801-.026-7.202-.005h-.058a1.332 1.332 0 0 0-1.323 1.342c.045 6.586.103 13.172-.017 19.755-.091 6.125-.273 12.248-.412 18.37-1.386-.056-2.77-.112-4.157-.139a97.01 97.01 0 0 0-2.46-.051c.022-1.865.052-3.718.087-5.564l.218-7.804c.104-2.591.201-5.19.349-7.79.122-2.604.278-5.223.342-7.85a1.42 1.42 0 0 0-1.375-1.454h-.04c-2.4-.075-4.8-.13-7.2-.125-1.2-.001-2.4-.028-3.6-.007l-3.603.035-.057.001a1.298 1.298 0 0 0-1.289 1.308c.018 2.542.083 5.085.069 7.626a331.66 331.66 0 0 1-.057 7.623c-.028 2.542-.119 5.082-.18 7.622l-.17 6.453c-2.206.006-4.412.001-6.617-.026.015-1.076.034-2.144.06-3.207l.156-5.09c.13-3.379.373-6.757.566-10.185a1.31 1.31 0 0 0-1.234-1.384l-.119-.007c-2.398-.142-4.8-.193-7.199-.203-2.4-.004-4.803.072-7.204.119l-.096.002h-.013c-.661.02-1.18.572-1.161 1.232.048 1.634.058 3.267.061 4.9.023 1.633-.029 3.266-.05 4.898l-.268 8.52a384.802 384.802 0 0 0-10.473-.089 1.218 1.218 0 0 0-1.207 1.172 1.216 1.216 0 0 0 1.171 1.257c3.878.134 7.756.188 11.635.21.018.002.034.011.052.011M170.901 249.255c1.113-4.4 3.678-8.461 7.285-11.338 3.328-2.667 7.526-4.24 11.813-4.443l-.02 21.206a1.05 1.05 0 0 0 1.94.553l.003-.005 11.114-17.928a21.217 21.217 0 0 1 6.293 6.949c2.21 4.021 3.134 8.727 2.491 13.27-.551 4.547-2.695 8.874-5.933 12.141-3.247 3.263-7.584 5.431-12.166 6.014-4.58.604-9.35-.397-13.266-2.793-3.941-2.363-7.01-6.06-8.691-10.27a20.698 20.698 0 0 1-1.481-6.607 21.234 21.234 0 0 1 .618-6.749m-3.576 6.935a23.657 23.657 0 0 0 1.77 7.521c2.013 4.768 5.654 8.794 10.13 11.283a24.198 24.198 0 0 0 7.166 2.635c2.51.474 5.08.54 7.608.235 5.069-.596 9.897-2.957 13.54-6.539 3.652-3.568 6.13-8.364 6.831-13.46.696-5.076-.3-10.413-2.932-14.82a23.56 23.56 0 0 0-8.153-8.32l-.009-.007a1.137 1.137 0 0 0-1.56.38l-9.641 15.845-.017-18.538v-.005a1.028 1.028 0 0 0-1.03-1.025c-5.073.012-10.156 1.642-14.249 4.71-4.115 3.017-7.252 7.437-8.642 12.428a23.5 23.5 0 0 0-.812 7.677" mask="url(#b)"/>
    </g>
</svg>
