<svg xmlns="http://www.w3.org/2000/svg" xmlns:xlink="http://www.w3.org/1999/xlink" width="591" height="374" viewBox="0 0 591 374">
    <defs>
        <path id="a" d="M.081.88h532V247.5h-532z"/>
        <path id="c" d="M0 0h558v41H0z"/>
        <path id="e" d="M.248.884h27.805v23.593H.248z"/>
    </defs>
    <g fill="none" fill-rule="evenodd">
        <g transform="translate(59 60.116)">
            <mask id="b" fill="#fff">
                <use xlink:href="#a"/>
            </mask>
            <path fill="#DEE3E3" d="M521.671 2.109c-218.816-12.42-393.4 69.376-521.59 245.39h532V2.633c-3.47-.155-8.022-.326-11.49-.523h1.08z" mask="url(#b)"/>
        </g>
        <path fill="#FFF" d="M257.5 242.616c0 29.27-25.744 53-57.5 53s-57.5-23.73-57.5-53c0-29.271 25.744-53 57.5-53s57.5 23.729 57.5 53"/>
        <g transform="translate(0 332.116)">
            <mask id="d" fill="#fff">
                <use xlink:href="#c"/>
            </mask>
            <path fill="#DEE3E3" d="M558 20.5C558 31.822 433.087 41 279 41S0 31.822 0 20.5 124.913 0 279 0s279 9.178 279 20.5" mask="url(#d)"/>
        </g>
        <path fill="#715291" d="M60.82 350.714l-19.64.901c-6.424 0-11.68-4.737-11.68-10.528l-5-43.555c0-5.791-.744-9.916 5.68-9.916h30.64c6.424 0 11.68 4.738 11.68 10.529v42.042c0 5.79-5.256 10.527-11.68 10.527"/>
        <path fill="#F5C847" d="M501.5 120.616c0 22.644-18.356 41-41 41s-41-18.356-41-41 18.356-41 41-41 41 18.356 41 41"/>
        <path fill="#472652" d="M487.747 345.598c-.705.26-1.505.47-2.313.653-1.62.37-3.312.634-5.007.88-3.397.482-6.847.777-10.298 1.078-6.909.558-13.863.805-20.817.876-3.477.038-6.955-.002-10.429-.114-3.475-.096-6.946-.28-10.402-.575-3.455-.285-6.906-.634-10.294-1.199-1.69-.279-3.375-.595-4.98-1.01a21.456 21.456 0 0 1-1.7-.513c.553-.17 1.137-.324 1.74-.455 1.608-.369 3.293-.646 4.984-.88 3.39-.47 6.837-.755 10.283-1.06 6.442-.487 12.92-.85 19.407-1.025-.019 1.121-.034 2.242-.057 3.363v.07a1.635 1.635 0 0 0 3.271-.072c-.025-1.14-.042-2.282-.064-3.422 6.367-.09 12.742.03 19.081.51 3.458.28 6.91.642 10.307 1.18 1.695.268 3.384.575 5.002.985.807.202 1.604.431 2.307.71a.163.163 0 0 0 .013.006l-.034.014m-48.324-224.146c-3.294-.084-6.593-.077-9.886-.208-3.292-.115-6.579-.414-9.793-.979-1.608-.26-3.2-.607-4.706-1.078-.746-.234-1.49-.486-2.112-.816a5.587 5.587 0 0 1-.562-.35c1.492-5.31 3.101-10.549 4.514-15.875.844-2.835 1.49-5.722 2.056-8.626.271-1.453.422-2.925.615-4.39l.245-2.203.125-2.214c.07-1.476.188-2.948.207-4.424.017-1.477.058-2.95.112-4.42.022-1.475.04-2.947.095-4.419.042-1.472.01-2.945.054-4.418.044-5.843-.106-11.659-1.244-17.517.032-.128.055-.26.055-.399.002.275-.072.32.015.246a3.25 3.25 0 0 1 .484-.315c.437-.249 1.006-.47 1.583-.679 1.18-.415 2.46-.73 3.75-1.04a90.334 90.334 0 0 1 7.96-1.392 67.844 67.844 0 0 1 4.06-.41 70.288 70.288 0 0 1 4.081-.217c2.726-.072 5.457.046 8.181.147 2.724.148 5.442.241 8.16.327 2.716.086 5.44.084 8.155.218 2.714.12 5.42.434 8.04.988 1.306.28 2.592.635 3.778 1.098.581.234 1.154.49 1.581.795.12.08.223.163.308.241-.022.066-.047.13-.06.2-1.174 5.923-1.323 11.802-1.28 17.71.045 1.472.013 2.945.054 4.417.055 1.472.074 2.944.095 4.418.055 1.471.095 2.944.113 4.421.018 1.476.137 2.948.207 4.424l.125 2.214.244 2.203c.193 1.465.344 2.937.615 4.39.567 2.904 1.212 5.791 2.057 8.626 1.411 5.321 3.018 10.555 4.51 15.86-.125.062-.26.126-.396.19-.628.274-1.37.494-2.113.704-1.502.421-3.088.734-4.68 1.037-3.198.57-6.458 1.031-9.732 1.372a98.846 98.846 0 0 1-4.928.405c-1.646.11-3.295.18-4.946.212-3.302.07-6.608-.049-9.907-.15-3.3-.149-6.594-.24-9.889-.324m51.805 222.483c-.142-.138-.315-.31-.448-.4l-.409-.276a8.93 8.93 0 0 0-1.466-.676c-.93-.339-1.823-.565-2.715-.766-1.78-.4-3.54-.672-5.3-.906-3.519-.46-7.028-.747-10.537-.978-6.446-.443-12.89-.706-19.34-.868a813.561 813.561 0 0 1-.085-7.325c-.05-4.625-.077-9.25-.066-13.875-.028-9.25.045-18.5.187-27.75.14-9.25.331-18.5.346-27.75.048-4.626.007-9.25-.016-13.876-.01-4.625-.059-9.25-.132-13.875-.297-18.499-.489-36.999-.357-55.499.097-17.912.263-35.824.07-53.735 2.793-.12 5.584-.292 8.372-.443l5.01-.268 5.011-.309c3.344-.236 6.695-.493 10.05-1.036a41.483 41.483 0 0 0 5.052-1.08c.852-.25 1.698-.534 2.584-.946.451-.223.894-.455 1.39-.853.127-.108.241-.19.372-.326l.004-.005c.396-.252.654-.658.731-1.105l.002-.004a3.3 3.3 0 0 0 .16-.889 1.63 1.63 0 0 0-.809-1.405c-1.923-4.923-3.478-10.013-4.268-15.256-.934-5.704-1.603-11.41-2.495-17.109-.18-1.43-.422-2.857-.567-4.293a167.923 167.923 0 0 1-.406-4.316c-.15-2.885-.21-5.777-.097-8.664.207-5.758.79-11.557 1.435-17.164l.002-.016c.126-.232.205-.494.205-.777-.044-.982-.556-1.593-.937-1.986a5.045 5.045 0 0 0-1.173-.84 14.92 14.92 0 0 0-2.168-.914c-1.41-.449-2.798-.77-4.18-1.069-2.766-.584-5.522-1.01-8.278-1.48-2.758-.437-5.526-.832-8.306-1a74.686 74.686 0 0 0-8.344-.052c-2.779.11-5.55.34-8.322.525l-4.158.273-4.163.32c-2.778.243-5.566.512-8.356 1.075-1.4.268-2.793.63-4.21 1.128-.71.268-1.419.573-2.167 1.028a4.56 4.56 0 0 0-.568.396 4.443 4.443 0 0 0-.582.536c-.374.423-.854 1.08-.859 2.06 0 .025.006.05.007.075a1.608 1.608 0 0 0-.053.636l.01.082c.645 5.607 1.228 11.406 1.435 17.164.112 2.887.052 5.78-.098 8.664-.118 1.441-.25 2.88-.405 4.316-.145 1.436-.387 2.862-.567 4.293-.893 5.698-1.56 11.405-2.495 17.11-.805 5.338-2.403 10.52-4.374 15.526-.284.294-.46.693-.46 1.134l.003.024a1.64 1.64 0 0 0 1.09 2.174c.078.022.156.03.233.04l.01.006c.501.366.952.563 1.403.763a22.31 22.31 0 0 0 2.584.834c1.693.427 3.362.741 5.028 1.04 3.338.546 6.661.966 9.988 1.428 3.327.43 6.663.818 10.008.986 2.796.14 5.595.17 8.392.095-.16 17.87.035 35.74.162 53.611.164 18.5.002 37-.263 55.501-.066 4.625-.107 9.25-.109 13.875-.016 4.625-.049 9.25.007 13.875.032 9.25.237 18.5.393 27.75.158 9.25.246 18.5.235 27.75.017 4.624 0 9.25-.043 13.874a763.574 763.574 0 0 1-.072 7.258c-6.574-.114-13.16-.096-19.748.356-3.52.208-7.033.571-10.559 1.098-1.764.27-3.528.571-5.318 1.012-.895.228-1.79.481-2.733.853a9.528 9.528 0 0 0-1.493.732l-.424.297c-.137.097-.322.285-.47.435-.31.323-.734.953-.759 1.833.032.88.462 1.502.775 1.817.15.147.336.331.475.424l.426.285a8.98 8.98 0 0 0 1.502.687c.946.342 1.844.566 2.742.763 1.792.394 3.556.656 5.321.881 3.528.432 7.036.73 10.548.96 3.511.21 7.02.365 10.527.497 3.508.11 7.016.173 10.524.217 7.017.056 14.04-.08 21.065-.528 3.516-.212 7.025-.565 10.544-1.08a54.903 54.903 0 0 0 5.296-1.01c.89-.222 1.78-.467 2.71-.827a9.1 9.1 0 0 0 1.46-.705l.406-.283c.133-.092.305-.267.446-.408.293-.303.682-.884.71-1.69a2.549 2.549 0 0 0-.72-1.68"/>
        <path fill="#F9C430" d="M436.722 35.96l-12.565-12.566a1.015 1.015 0 0 1 0-1.435l.686-.687a1.015 1.015 0 0 1 1.435 0l12.565 12.566a1.014 1.014 0 0 1 0 1.434l-.686.687a1.015 1.015 0 0 1-1.435 0M449.993 35.616h-.986A1.007 1.007 0 0 1 448 34.609V11.623c0-.556.45-1.007 1.007-1.007h.986c.557 0 1.007.45 1.007 1.007v22.986c0 .556-.45 1.007-1.007 1.007M460.832 32.948l-.664-.664a1.03 1.03 0 0 1 0-1.457l13.043-13.043a1.03 1.03 0 0 1 1.457 0l.664.664a1.03 1.03 0 0 1 0 1.457l-13.043 13.043a1.03 1.03 0 0 1-1.457 0"/>
        <path fill="#472652" d="M77.048 303.328c-.118 1.307-.26 2.612-.422 3.914-.319 2.606-.756 5.2-1.124 7.8a111.21 111.21 0 0 0-.93 7.82c-.225 2.614-.294 5.245-.41 7.871a125.888 125.888 0 0 1-1.623 15.663c-.003.018-.003.04-.006.058l-.109.058c-.27.14-.653.273-1.042.402-.796.264-1.676.466-2.562.678a70.47 70.47 0 0 1-5.498.974c-.932.133-1.872.221-2.813.288-.94.076-1.886.122-2.832.132-1.893.03-3.788-.108-5.677-.21-1.889-.148-3.773-.22-5.657-.263-1.883-.043-3.773.026-5.659-.012a30.146 30.146 0 0 1-5.573-.569c-.9-.187-1.789-.417-2.592-.726-.39-.159-.775-.333-1.037-.526l-.002-.002a1.73 1.73 0 0 0-.02-.285 125.329 125.329 0 0 1-1.619-15.622c-.116-2.615-.183-5.232-.406-7.837a111.313 111.313 0 0 0-.93-7.8c-.369-2.598-.806-5.195-1.125-7.798a117.045 117.045 0 0 1-.422-3.906 122.442 122.442 0 0 1-.345-3.909c-.306-4.007-.568-8.01-1.018-12.013.187.047.375.097.56.14 1.277.287 2.52.475 3.76.633 2.48.298 4.931.511 7.386.672 2.455.142 4.904.252 7.352.354 2.45.081 4.898.13 7.347.173 4.898.05 9.802.015 14.713-.332a81.514 81.514 0 0 0 7.382-.802c1.237-.19 2.472-.43 3.733-.763.191-.05.384-.11.575-.166-.444 3.986-.705 7.99-1.009 11.99-.092 1.31-.212 2.616-.346 3.921m-46.585-19.417c2.332-.338 4.718-.56 7.106-.773 4.78-.403 9.6-.74 14.431-.893 4.83-.166 9.673-.085 14.477.302 2.397.213 4.791.488 7.132.891 1.168.201 2.33.432 3.422.73.086.024.17.051.254.076-.094.023-.186.05-.282.073-1.097.26-2.26.448-3.428.625-2.34.347-4.732.558-7.124.78-4.79.39-9.62.635-14.45.696-2.417.04-4.834.014-7.247-.069a107.224 107.224 0 0 1-7.22-.432c-2.396-.216-4.789-.478-7.12-.91a40.13 40.13 0 0 1-2.788-.603 39.99 39.99 0 0 1 2.837-.493m51.672.388a2.228 2.228 0 0 0-.014-.157l.006-.084a1.643 1.643 0 0 0-.91-1.552l-.03-.027-.322-.229a6.231 6.231 0 0 0-1.11-.546c-.685-.262-1.319-.425-1.955-.576-1.266-.295-2.502-.49-3.738-.657-2.47-.329-4.922-.528-7.374-.692-4.899-.349-9.789-.55-14.688-.726-4.899-.142-9.812-.197-14.734.135a82.959 82.959 0 0 0-7.4.808c-1.24.207-2.48.442-3.755.782-.639.178-1.277.37-1.972.664a6.76 6.76 0 0 0-1.14.605l-.335.251a4.42 4.42 0 0 0-.388.387c-.116.115-.296.411-.4.631-.12.235-.208.656-.217.983.013.327.103.746.226.978.028.056.061.118.097.18.338 4.716.98 9.432 1.571 14.142.173 1.308.316 2.616.447 3.925.146 1.308.268 2.617.37 3.927.208 2.62.3 5.245.458 7.87.12 2.626.348 5.25.654 7.865.304 2.618.765 5.223 1.176 7.83a126.468 126.468 0 0 1 1.548 15.711c.001.023.006.05.008.077-.005.054-.017.106-.017.162.016.21.054.426.111.628.062.178.142.334.23.492.166.257.368.493.527.621.35.317.643.461.935.612.575.271 1.088.443 1.602.597 1.014.295 1.992.51 2.968.704 1.947.39 3.873.688 5.797 1.057 1.926.34 3.86.667 5.802.793 1.942.128 3.89.128 5.831-.014 1.942-.107 3.876-.319 5.81-.46.967-.072 1.934-.138 2.904-.19.97-.07 1.938-.139 2.912-.193 1.945-.144 3.901-.286 5.872-.653.99-.169 1.977-.413 3-.752a9.592 9.592 0 0 0 1.596-.72 4.16 4.16 0 0 0 .916-.703 2.15 2.15 0 0 0 .253-.29c.09-.128.164-.212.25-.38.08-.167.153-.33.206-.514.05-.207.078-.425.083-.635 0-.06-.01-.117-.018-.175.002-.022.01-.044.01-.067.191-5.256.7-10.479 1.544-15.67.411-2.597.87-5.187 1.174-7.795.305-2.607.532-5.222.652-7.847.16-2.622.251-5.25.46-7.867.101-1.309.224-2.615.37-3.92.13-1.305.273-2.61.446-3.91.626-4.97 1.315-9.934 1.633-14.935.035-.16.057-.33.062-.48"/>
        <path fill="#F7F2ED" d="M386 195.116v-11c-2-33-39-45-46-49-3.92-2.24-32.594-1.658-63.396-.888 3.718 5.865 7.282 11.814 10.062 18.203 6.266 14.405 7.058 28.756 2.757 43.848-3.857 13.534-9.85 26.412-14.176 39.809-7.82 24.218-14.444 51.717-8.17 77.028H372l32-9 1-66c21-35-19-43-19-43"/>
        <path fill="#472652" d="M378.123 315.932c1.108 7.347 1.332 14.69 2.098 21.931.185 1.81.43 3.607.738 5.384.296 1.78.667 3.54 1.165 5.234.5 1.688 1.127 3.334 1.972 4.715.825 1.408 1.931 2.37 2.954 2.522.717.045.633.026 1.001-.247.33-.288.718-.908 1.031-1.586.645-1.4 1.1-3.09 1.493-4.792.763-3.435 1.351-7.027 1.827-10.636.484-3.614.763-7.266.953-10.93.24-3.669.327-7.335.518-11.08a1.637 1.637 0 1 1 3.253.337 72.29 72.29 0 0 0-.624 5.415 142.528 142.528 0 0 0-.38 5.486 493.956 493.956 0 0 0-.54 11.051c-.189 3.702-.388 7.428-1.134 11.185-.385 1.882-.883 3.768-1.804 5.694-.505.952-1.067 1.955-2.16 2.85-.308.207-.603.418-.944.585-.373.138-.742.304-1.137.36-.378.037-.85.103-1.15.05-.32-.04-.642-.08-.958-.139-1.285-.3-2.39-1.03-3.202-1.848-.838-.824-1.404-1.744-1.884-2.655-.933-1.838-1.508-3.692-1.99-5.536-.944-3.692-1.499-7.37-2.036-11.042-1.037-7.34-1.684-14.673-2.307-21.914v-.01a1.637 1.637 0 0 1 1.49-1.77 1.642 1.642 0 0 1 1.757 1.386M279.207 129.474c10.547.541 21.21.301 31.938.402 10.718.127 21.548.341 32.293 2.434 5.359 1.05 10.658 2.751 15.607 5.243 4.965 2.465 9.462 5.865 13.317 9.81 1.003.948 1.854 2.04 2.783 3.053.89 1.054 1.716 2.174 2.57 3.256 1.567 2.314 2.968 4.625 4.228 7.082 2.549 4.873 4.222 10.223 4.993 15.682.007.055.01.11.01.163v.017c-.02 2.688.01 5.378.053 8.074a1.638 1.638 0 1 1-3.273-.053l.004-.096c.134-2.637.253-5.28.323-7.925l.012.18c-.548-5.156-2.17-10.157-4.607-14.743-1.217-2.28-2.677-4.502-4.212-6.54-.862-.967-1.68-1.96-2.568-2.9-.931-.905-1.783-1.887-2.77-2.726-3.832-3.476-8.071-6.452-12.67-8.778-1.157-.569-2.307-1.15-3.504-1.64-1.173-.542-2.39-.99-3.603-1.445-1.205-.478-2.457-.837-3.688-1.258-1.258-.338-2.5-.743-3.776-1.028-10.168-2.59-20.883-2.917-31.512-2.756-10.648.166-21.395.757-32.193-.246a1.637 1.637 0 0 1 .23-3.263l.015.001z"/>
        <path fill="#472652" d="M354.83 169.1c-1.047.793-2.453 1.455-3.72 2.203a9.387 9.387 0 0 0-1.791 1.34c-.552.507-1.008 1.127-1.491 1.702a11.84 11.84 0 0 1-1.547 1.616c-.565.485-1.223.883-1.854 1.32a8.928 8.928 0 0 0-2.962 3.398l-.032.065a1.695 1.695 0 1 1-2.498-2.139c.67-.474 1.216-1.044 1.74-1.633a13.274 13.274 0 0 0 1.444-1.897c.81-1.416 1.876-2.647 3.259-3.5.688-.43 1.389-.834 2.052-1.28a21.137 21.137 0 0 0 1.888-1.474c1.242-1.048 2.42-2.097 4.135-2.689a1.64 1.64 0 0 1 1.527 2.854l-.15.113zM384.19 305.98c4.379-.053 8.654-2.11 12.057-5.046 3.413-2.945 6.052-6.915 7.108-11.203.532-2.03.514-4.459.616-6.855.09-2.394.103-4.797.102-7.202-.025-4.813-.184-9.644-.314-14.496-.127-4.853-.211-9.729-.091-14.62.047-1.218.072-2.456.14-3.658.07-1.212.11-2.35.24-3.774.369-2.78 1.659-5.14 2.893-7.276 1.259-2.14 2.602-4.123 3.603-6.178 1.009-2.046 1.666-4.167 1.68-6.31l.01-.805-.102-.784-.094-.784c-.058-.276-.135-.554-.203-.84a95.685 95.685 0 0 0-.916-3.456c-.658-2.256-1.453-4.439-2.647-6.258l.184.225-4.035-4.013-1.007-.998c-.31-.3-.625-.589-.953-.856a12.069 12.069 0 0 0-2.118-1.382c-3.106-1.567-6.787-2.315-10.371-2.66-1.802-.13-3.608-.139-5.386.061-1.772.214-3.516.582-5.185 1.15a22.312 22.312 0 0 0-4.687 2.34c-1.436.99-2.724 2.173-3.888 3.474l.139-.183c-1.594 2.451-3.454 4.528-4.376 6.692a22.358 22.358 0 0 0-1.092 3.598c-.207 1.236-.372 2.485-.33 3.757.015 1.268.132 2.546.37 3.82.209 1.277.53 2.55.908 3.818.755 2.537 1.778 5.041 2.864 7.562.134.312.18.64.152.954l-.003.028c-.492 5.035-.088 10.288.198 15.568.313 5.29.68 10.658.409 16.122-.15 2.73-.481 5.485-1.142 8.211-.665 2.72-1.67 5.43-3.227 7.87a20.663 20.663 0 0 1-6.04 6.133c-2.396 1.591-5.047 2.666-7.731 3.41l-.013.003a1.581 1.581 0 0 1-.412.054l-21.001-.129c-7-.053-14-.007-21.001-.01-7-.006-14 .031-21.001.083-7 .025-14 .142-21 .22h-.008a1.635 1.635 0 1 1-.037-3.272h.032c7.002.061 14.004.161 21.005.167 7 .034 14.003.054 21.004.031 7-.02 14.002.008 21.004-.064l21.003-.18-.425.058c2.41-.727 4.71-1.733 6.709-3.126a17.323 17.323 0 0 0 4.937-5.227c2.517-4.17 3.323-9.3 3.523-14.412.215-5.147-.18-10.392-.54-15.688-.361-5.3-.71-10.687-.161-16.234l.148.981c-1.092-2.578-2.163-5.224-2.977-8.012-.818-2.776-1.378-5.72-1.345-8.737-.02-1.506.192-3.02.475-4.51.19-.734.34-1.492.602-2.184.242-.709.457-1.4.797-2.145.657-1.454 1.529-2.719 2.374-3.864.852-1.148 1.676-2.208 2.418-3.3l.03-.045a1.47 1.47 0 0 1 .109-.138c1.389-1.507 2.936-2.872 4.649-4.005a25.682 25.682 0 0 1 5.515-2.634c1.937-.622 3.928-1.004 5.925-1.207 2-.185 3.999-.143 5.978.013 1.979.178 3.926.543 5.845 1.007 1.939.497 3.822 1.13 5.666 2.091a15.303 15.303 0 0 1 3.775 2.803l1.005 1.013 4.012 4.035.007.007c.066.066.128.143.178.218 1.48 2.24 2.345 4.675 3.057 7.054.352 1.194.662 2.385.963 3.565.074.303.159.61.227.925l.14 1.017.13 1.02v1.012c-.004 2.715-.836 5.336-1.956 7.626-1.118 2.31-2.5 4.355-3.681 6.396-1.173 2.033-2.215 4.067-2.462 6.13-.08.99-.14 2.272-.196 3.48-.06 1.217-.073 2.402-.111 3.605-.077 4.8.045 9.617.212 14.45.168 4.835.369 9.69.435 14.57.02 2.44.028 4.883-.044 7.333a92.934 92.934 0 0 1-.155 3.694l-.05.93c-.016.31-.09.66-.135.99-.102.666-.193 1.341-.386 1.968-1.3 5.136-4.331 9.59-8.235 12.956-3.884 3.355-8.897 5.737-14.292 5.733a1.636 1.636 0 0 1-.021-3.27h.02z"/>
        <path fill="#472652" d="M269.43 305.98c8.001-.235 16.002-.024 24.004.105 8.001.148 16.002-.029 24.003-.31 4.001-.144 8.001-.18 12.002-.14 4 .04 8.001.237 12.002.385 4 .171 8.001.23 12.001.21 2.001.014 4.001-.008 6.001-.055a167 167 0 0 0 6.001-.195 1.638 1.638 0 1 1 0 3.271c-2-.097-4.001-.168-6.001-.195-2-.046-4-.068-6.001-.055-4-.019-8.001.04-12.001.211-4.001.148-8.002.344-12.002.384-4.001.042-8.001.005-12.002-.139-8.001-.28-16.002-.458-24.003-.31-8.002.13-16.003.34-24.004.104a1.636 1.636 0 0 1 0-3.27M279.549 233.485c6.826-.155 13.642.488 20.394 1.379 1.685.252 3.373.475 5.063.685 1.68.266 3.367.508 5.055.73 1.683.26 3.368.507 5.06.732l5.052.817c1.677.307 3.353.63 5.023.98 1.659.397 3.319.796 4.968 1.233 1.64.468 3.272.97 4.894 1.496l4.834 1.679 19.23 6.888.007.002a1.638 1.638 0 1 1-1.251 3.023 103.388 103.388 0 0 0-9.311-3.861c-1.59-.548-3.17-1.116-4.772-1.624a158.14 158.14 0 0 0-4.85-1.38l-4.89-1.215c-1.638-.363-3.27-.752-4.89-1.175a198.405 198.405 0 0 1-4.878-1.211 197.57 197.57 0 0 1-4.876-1.233l-4.898-1.164c-1.64-.357-3.285-.692-4.934-1.012a131.965 131.965 0 0 0-9.98-1.348c-6.69-.623-13.388-.835-20.09-1.15a1.637 1.637 0 0 1-1.558-1.711 1.643 1.643 0 0 1 1.598-1.56"/>
        <path fill="#F9C430" d="M173.5 66.616c0 11.598-9.402 21-21 21s-21-9.402-21-21 9.402-21 21-21 21 9.402 21 21"/>
        <path fill="#EF8B60" d="M173.5 68.116c0 9.665-5.596 17.5-12.5 17.5-6.903 0-12.5-7.835-12.5-17.5s5.597-17.5 12.5-17.5c6.904 0 12.5 7.835 12.5 17.5"/>
        <path fill="#472652" d="M254.913 257.22c1.144-4.92 2.263-9.844 3.258-14.789.973-4.949 1.81-9.92 2.554-14.9 1.455-9.96 2.237-20.027 1.897-30.055a108.208 108.208 0 0 0-1.49-14.943c-.433-2.463-.923-4.918-1.53-7.344a108.601 108.601 0 0 0-2.11-7.199c-1.576-4.75-3.503-9.383-5.629-13.958-2.108-4.583-4.379-9.137-6.354-13.91-.986-2.387-1.892-4.829-2.644-7.338a53.945 53.945 0 0 1-1.663-7.708c-.733-5.229-.623-10.576.254-15.732a78.628 78.628 0 0 1 1.677-7.633c.698-2.5 1.52-4.957 2.423-7.373 1.786-4.713 3.316-9.449 4.44-14.313 1.116-4.852 1.754-9.81 1.746-14.756.012-4.942-.762-9.877-2.428-14.477a35.203 35.203 0 0 0-3.186-6.577 33.94 33.94 0 0 0-4.548-5.695 32.562 32.562 0 0 0-5.67-4.568 32.742 32.742 0 0 0-3.168-1.779c-1.06-.524-2.246-1.015-3.259-1.322l-.066-.02a1.636 1.636 0 1 1 .95-3.132l.06.02c1.398.484 2.533 1.043 3.735 1.661a35.816 35.816 0 0 1 3.41 2.042c2.184 1.49 4.23 3.181 6.066 5.081 3.671 3.802 6.487 8.404 8.28 13.343 1.805 4.947 2.568 10.194 2.684 15.39.104 5.207-.515 10.38-1.485 15.452-.998 5.063-2.449 10.051-4.122 14.877-1.59 4.727-2.92 9.524-3.654 14.387-.724 4.861-.887 9.767-.25 14.598.631 4.832 2.042 9.557 3.838 14.205 1.8 4.65 3.944 9.24 5.96 13.93 2.01 4.688 3.936 9.46 5.496 14.363a116.586 116.586 0 0 1 3.664 14.984 126.43 126.43 0 0 1 1.632 15.32c.477 10.26-.212 20.521-1.569 30.651-1.366 10.135-3.469 20.143-6.026 30.01a1.636 1.636 0 1 1-3.177-.778l.004-.016z"/>
        <path fill="#4DB0CF" d="M151 132.116l7 32s16-22 38-27 41-12 41-12 72.5 34.5 27 88l-3 33s-53 16-93 0-37-19-37-19-18-36-12-62 32-33 32-33"/>
        <path fill="#F5C847" d="M220.003 334.58c-9.343.306-25.78 7.605-26.458 17.447-.678 9.843 12.89 18.342 29.17 14.764 16.283-3.58 18.714-32.911-2.712-32.211M153.975 334.58c-9.343.306-25.78 7.605-26.458 17.447-.678 9.843 12.89 18.342 29.17 14.764 16.283-3.58 18.714-32.911-2.712-32.211"/>
        <path fill="#472652" d="M200.262 63.71c-1.029 0-2.035-.147-3.018-.442-5.559-1.67-8.071-7.5-8.176-7.748a1.84 1.84 0 0 1 3.388-1.434c.028.065 1.982 4.512 5.868 5.665 2.385.71 5.129.044 8.156-1.974a1.838 1.838 0 1 1 2.041 3.059c-2.867 1.914-5.634 2.874-8.259 2.874M140.245 247.057c-.896-3.29-1.833-6.584-2.59-9.91l-.922-5.036-.446-2.52-.215-1.26-.134-1.272-.513-5.084c-.149-1.696-.402-3.385-.417-5.088l-.194-5.099c-.05-1.699-.172-3.397-.094-5.095.048-13.59 1.273-27.139 3.507-40.537.632-3.334 1.251-6.676 1.98-9.992.816-3.295 1.607-6.599 2.501-9.874.998-3.245 1.984-6.494 3.041-9.717l3.511-9.552c4.915-12.643 10.54-24.977 16.996-36.934a1.635 1.635 0 1 1 2.88 1.554l-.022.038-.023.04c-1.677 2.891-3.367 5.78-4.958 8.724-1.5 2.991-3.03 5.972-4.439 9.01-1.326 3.075-2.728 6.12-3.964 9.232-1.163 3.142-2.383 6.262-3.47 9.427l-3.032 9.572c-.866 3.233-1.804 6.441-2.729 9.653-.78 3.251-1.629 6.482-2.47 9.717-.394 1.624-.71 3.265-1.075 4.896l-1.109 4.89c-2.748 13.08-4.31 26.463-4.064 39.828-.047 1.671.106 3.336.186 5.002l.277 4.997c.042 1.67.321 3.317.495 4.973l.588 4.961.151 1.24.232 1.225.446 2.454.863 4.912c.311 1.633.792 3.225 1.18 4.84l1.178 4.843.031.127a1.633 1.633 0 0 1-3.163.815"/>
        <path fill="#472652" d="M235.15 69.949c-.993 3.455-2.672 6.688-4.852 9.564-4.428 5.72-10.953 9.865-17.94 12.27l-2.648.863c-.901.23-1.815.414-2.722.625-1.803.48-3.676.634-5.523.915-3.723.36-7.492.459-11.246.13a72.12 72.12 0 0 1-11.175-1.658c-3.265-.746-6.555-1.67-9.65-2.812a1.954 1.954 0 0 0-.623-.603l-.104-.063c-.37-.221-.741-.455-1.112-.687-2.308-2.506-4.261-5.307-5.615-8.376a26.622 26.622 0 0 1-2.23-11.46c.052-3.94.908-7.887 2.293-11.646a45.883 45.883 0 0 1 2.453-5.504c.902-1.728 1.934-3.481 3.024-4.995 5.564-4.968 11.897-9.097 18.803-11.86 6.962-2.766 14.545-3.964 21.947-3.28 7.365.684 14.642 3.477 19.927 8.346l1.824 1.937a22.77 22.77 0 0 1 1.529 2.156c.944 1.513 1.725 3.15 2.403 4.829 1.349 3.37 2.108 6.983 2.347 10.596.21 3.614-.09 7.263-1.11 10.713zm-79.94 16.507c-.818-.256-1.666-.445-2.445-.791l-2.385-.937c-.81-.288-1.527-.743-2.297-1.106-3.026-1.534-5.81-3.548-8.044-6.041-1.086-1.264-2.117-2.593-2.86-4.072a9.405 9.405 0 0 1-.547-1.107c-.154-.38-.353-.746-.47-1.134-.128-.383-.284-.765-.373-1.15a9.055 9.055 0 0 1-.181-.731c.64-1.487 1.265-2.984 1.963-4.437l1.283-2.258.638-1.13c.215-.374.496-.703.74-1.056l1.514-2.088c.52-.681 1.14-1.274 1.703-1.916l.863-.947c.299-.303.636-.565.949-.852.649-.548 1.252-1.154 1.933-1.66 2.686-2.077 5.75-3.613 8.965-4.656 1.369-.443 2.776-.76 4.194-1.005-.572.416-1.136.842-1.672 1.307-2.185 1.693-4.094 3.707-5.94 5.752-1.83 2.069-3.412 4.35-4.8 6.74-1.392 2.42-2.565 4.849-3.413 7.687-.067.225-.07.47.005.712l.022.072c.86 2.74 2.285 5.153 3.898 7.356 1.608 2.219 3.484 4.165 5.416 6.024 1.649 1.593 3.402 3.053 5.207 4.437l-1.4-.285-2.466-.728zm3.699-4.982c.23.504.473 1 .729 1.489a76.403 76.403 0 0 1-3.277-2.672c-1.898-1.657-3.732-3.4-5.283-5.324-1.462-1.81-2.767-3.745-3.557-5.83a26.17 26.17 0 0 1 1.108-3.124c.52-1.171 1.064-2.341 1.719-3.453 1.294-2.23 2.77-4.367 4.485-6.304.398-.51.876-.951 1.312-1.427.45-.464.892-.937 1.385-1.357l1.439-1.298c.495-.415 1.015-.802 1.52-1.204.228-.194.465-.376.705-.554a49.005 49.005 0 0 0-2.407 5.402c-1.506 4.054-2.5 8.37-2.548 12.783a30.071 30.071 0 0 0 2.67 12.873zm81.329-22.5c-.317-4.041-1.211-8.026-2.763-11.775a30.84 30.84 0 0 0-2.858-5.401 26.543 26.543 0 0 0-1.88-2.483l-2.191-2.193c-3.088-2.726-6.69-4.673-10.426-6.091-3.74-1.465-7.696-2.162-11.633-2.545-7.903-.53-15.9.658-23.21 3.586-7.12 2.757-13.625 6.858-19.522 11.644l-.071-.005a9.142 9.142 0 0 0-.73-.036 18.174 18.174 0 0 0-1.438-.01c-.957-.002-1.9.104-2.847.193-1.878.256-3.75.618-5.553 1.21-3.617 1.144-7.046 2.93-10.01 5.299-.751.576-1.417 1.252-2.128 1.875-.345.323-.711.625-1.033.969l-.93 1.064c-.603.72-1.266 1.398-1.817 2.155l-1.594 2.312c-.257.39-.55.76-.775 1.167l-.665 1.227-1.327 2.456c-.777 1.68-1.424 3.414-2.164 5.108-.085.198-.12.425-.086.654l.005.03c.09.608.2 1.038.337 1.524.118.482.297.926.453 1.384.146.463.369.885.553 1.327.182.444.405.864.638 1.278.876 1.695 2.023 3.203 3.213 4.664 2.45 2.878 5.52 5.1 8.728 6.94.819.43 1.6.958 2.454 1.307l2.535 1.119c.835.409 1.723.644 2.59.953l2.617.879c1.777.424 3.549.908 5.339 1.282l5.406.84c.287.044.574.004.849-.077 3.345 1.189 6.679 2.068 10.096 2.808 3.82.815 7.697 1.39 11.605 1.656 3.905.336 7.843.207 11.764-.096 1.953-.268 3.924-.41 5.849-.89.966-.21 1.938-.395 2.9-.628l2.84-.881c3.774-1.223 7.44-2.852 10.812-4.993a37.705 37.705 0 0 0 9.055-7.955c2.556-3.164 4.537-6.842 5.679-10.77 1.183-3.916 1.588-8.034 1.334-12.08zM216.653 24.99c-.263 0-.53-.052-.786-.162-11.093-4.751-8.991-19.698-8.897-20.332a2 2 0 1 1 3.957.589c-.02.125-1.733 12.534 6.514 16.066a2 2 0 0 1-.788 3.839"/>
        <g transform="translate(178 -.884)">
            <mask id="f" fill="#fff">
                <use xlink:href="#e"/>
            </mask>
            <path fill="#472652" d="M26.051 24.477a2 2 0 0 1-1.95-1.566C20.275 5.721 2.357 4.89 2.176 4.882A1.998 1.998 0 0 1 .25 2.813 2.002 2.002 0 0 1 2.32.885c.211.008 21.197.983 25.686 21.157a2 2 0 0 1-1.954 2.435" mask="url(#f)"/>
        </g>
        <path fill="#472652" d="M144.066 251.375c1.026 2.601 2.34 5.272 3.71 7.818 1.379 2.565 2.91 5.047 4.53 7.465 3.272 4.816 7.039 9.303 11.347 13.21 2.167 1.933 4.438 3.76 6.877 5.336 2.428 1.585 4.95 3.04 7.62 4.168 5.27 2.426 10.979 3.746 16.708 4.351 11.485 1.061 23.33-.285 33.63-5.53 5.147-2.597 9.757-6.267 13.603-10.616 1.03-1.026 1.87-2.222 2.78-3.356.439-.58.894-1.147 1.319-1.738l1.186-1.837c1.67-2.39 2.942-5.036 4.293-7.613l.063-.12a1.636 1.636 0 1 1 2.849 1.611c-1.582 2.6-3.027 5.262-4.815 7.727l-1.282 1.882c-.457.607-.947 1.19-1.42 1.785-.956 1.183-1.831 2.43-2.912 3.511-4.064 4.531-8.818 8.485-14.134 11.567-5.316 3.065-11.206 5.23-17.28 6.24a60.699 60.699 0 0 1-18.325.141c-12.18-1.67-23.625-7.223-32.788-15.216-4.587-4.003-8.69-8.558-12.15-13.556a76.545 76.545 0 0 1-4.762-7.768c-1.42-2.706-2.697-5.409-3.737-8.39a1.634 1.634 0 0 1 1.004-2.082c.83-.29 1.737.13 2.059.94l.027.07zM165.611 298.907c-.506-3.664-1.085-7.286-1.877-10.93a1.636 1.636 0 0 0-3.21.628l.005.028c.616 3.538 1.195 7.144 1.665 10.732.453 3.597.855 7.198 1.134 10.798.26 3.598.392 7.206.215 10.765-.187 3.53-.61 7.14-1.966 10.134-.663 1.447-1.72 2.688-3.003 3.828-1.273 1.132-2.713 2.149-4.232 3.049-3.042 1.804-6.322 3.299-9.676 4.604-6.723 2.57-13.774 4.503-20.75 6.162l-.01.002a1.967 1.967 0 0 0-.72 3.486l4.007 2.999c1.328 1.01 2.693 1.97 4.04 2.954l4.053 2.936c1.347.985 2.724 1.929 4.085 2.894l.063.045c.287.204.64.32 1.02.312l12.25-.294 6.124-.09c1.757-.02 3.514-.05 5.271-.053.135.036.273.066.415.08.194.004.396-.016.587-.053.212-.068.323-.08.621-.265a1.373 1.373 0 0 0-.729-2.54h-.038a1.414 1.414 0 0 1-.112-.341c-.046-.195-.116-.36-.138-.595-.069-.436-.14-.873-.159-1.353a14.51 14.51 0 0 1-.06-1.427c-.05-1.928.111-3.916.295-5.886.217-1.977.446-3.957.76-5.933.288-1.975.661-3.95 1.02-5.917l.01-.054c.006-.037.012-.074.016-.111a1.636 1.636 0 1 0-3.255-.358c-.222 2.02-.544 4.019-.742 6.045a162.745 162.745 0 0 0-.627 6.077c-.129 2.046-.286 4.083-.248 6.188a17.23 17.23 0 0 0 .068 1.592c.021.528.105 1.087.197 1.646.013.13.045.27.082.413-1.078-.012-2.157-.03-3.235-.041l-6.125-.086-11.608-.271c-1.173-.907-2.338-1.825-3.526-2.712l-3.999-3.012c-1.336-.998-2.655-2.02-4.01-2.993l-.718-.524a148.47 148.47 0 0 0 6.628-2.034 132.351 132.351 0 0 0 10.405-3.916c3.416-1.46 6.803-3.04 10.016-5.043 1.6-1.005 3.191-2.067 4.651-3.373 1.452-1.276 2.841-2.863 3.717-4.75 1.721-3.684 2.174-7.5 2.458-11.234.253-3.747.182-7.47-.019-11.17a126.173 126.173 0 0 0-1.086-11.038"/>
        <path fill="#472652" d="M210.274 345.497c3.416-1.461 6.803-3.041 10.016-5.043 1.6-1.006 3.192-2.068 4.652-3.373 1.452-1.276 2.84-2.863 3.717-4.75 1.719-3.685 2.174-7.5 2.458-11.234.253-3.748.18-7.47-.02-11.171a125.828 125.828 0 0 0-1.086-11.038c-.506-3.663-1.085-7.286-1.877-10.93a1.638 1.638 0 0 0-1.88-1.263 1.638 1.638 0 0 0-1.33 1.892l.005.027c.616 3.537 1.196 7.144 1.665 10.733.453 3.596.855 7.197 1.134 10.797.26 3.599.393 7.207.216 10.766-.19 3.529-.61 7.14-1.966 10.133-.664 1.447-1.721 2.688-3.004 3.828-1.272 1.133-2.713 2.149-4.231 3.049-3.042 1.804-6.323 3.299-9.677 4.603-6.723 2.57-13.773 4.504-20.751 6.163l-.01.002a1.966 1.966 0 0 0-.72 3.487l4.007 2.998c1.329 1.01 2.694 1.97 4.04 2.954l4.055 2.936c1.347.985 2.724 1.929 4.084 2.895l.064.044c.287.205.64.32 1.019.312l12.25-.294 6.125-.09c1.757-.02 3.513-.05 5.27-.053.135.036.274.066.415.08a2.84 2.84 0 0 0 .588-.053c.21-.068.323-.08.62-.264a1.373 1.373 0 0 0-.73-2.541h-.036a1.455 1.455 0 0 1-.113-.341c-.045-.195-.115-.36-.138-.594-.068-.437-.141-.873-.16-1.354a15.13 15.13 0 0 1-.06-1.426c-.05-1.93.113-3.916.297-5.887.217-1.977.446-3.957.758-5.933.289-1.975.662-3.95 1.02-5.917l.01-.054a1.636 1.636 0 1 0-3.239-.469c-.221 2.02-.543 4.019-.741 6.046a166.633 166.633 0 0 0-.627 6.077c-.128 2.046-.286 4.083-.247 6.187-.007.519.024 1.054.068 1.592.02.528.105 1.087.196 1.646.014.13.045.27.082.414-1.078-.013-2.156-.03-3.234-.041l-6.125-.086-11.608-.272c-1.173-.907-2.338-1.825-3.527-2.712l-3.998-3.011c-1.337-1-2.655-2.021-4.011-2.994l-.718-.524a148.499 148.499 0 0 0 6.629-2.033 133.128 133.128 0 0 0 10.404-3.916M244.253 126.164c4.957 2.562 9.424 5.65 13.709 9.079 4.283 3.407 8.224 7.249 11.792 11.419.868 1.065 1.788 2.083 2.586 3.205.82 1.104 1.695 2.165 2.429 3.334.754 1.153 1.563 2.269 2.215 3.489.689 1.196 1.444 2.355 2.017 3.62 2.485 4.934 4.352 10.277 5.05 15.86.11 1.399.324 2.799.34 4.204l-.094 4.223-.571 4.179c-.062.705-.29 1.372-.452 2.055l-.525 2.036c-.29 1.378-.84 2.666-1.335 3.97-.507 1.299-.965 2.62-1.647 3.832l-1.9 3.697c-.7 1.19-1.471 2.335-2.202 3.5l-1.11 1.739c-.38.573-.816 1.103-1.22 1.657l-2.454 3.294c-.39.564-.84 1.077-1.29 1.59l-1.323 1.56-2.643 3.125-5.66 5.886a322.566 322.566 0 0 0-5.898 5.639 1.638 1.638 0 1 1-2.207-2.418l.074-.062a307.33 307.33 0 0 0 6.032-5.233c1.917-1.842 3.757-3.762 5.605-5.673l2.567-3.04 1.276-1.526c.424-.51.85-1.017 1.213-1.571l2.256-3.26c.365-.55.77-1.074 1.097-1.646l.96-1.725c.632-1.153 1.304-2.283 1.9-3.448l1.594-3.58c.59-1.166.912-2.432 1.358-3.648.422-1.224.88-2.437 1.135-3.703.282-1.256.664-2.494.87-3.76l.555-3.812.18-3.843c.045-1.282-.103-2.562-.141-3.848a42.29 42.29 0 0 0-4.118-14.9 45.676 45.676 0 0 0-3.946-6.787 57.766 57.766 0 0 0-4.88-6.198c-3.511-3.934-7.451-7.49-11.62-10.74-4.163-3.23-8.582-6.28-13.08-8.867l-.06-.034a1.635 1.635 0 0 1 1.566-2.87M233.73 167.539c1.03 1.038 1.753 2.114 2.413 3.314.663 1.178 1.159 2.452 1.579 3.75.4 1.307.737 2.64.954 4.03.215 1.386.335 2.848.136 4.332-.185 1.482-.773 2.928-1.62 4.139-.84 1.228-1.97 2.183-3.13 2.948-1.155.79-2.32 1.455-3.472 2.138-.584.315-1.168.63-1.744.966-.587.3-1.166.623-1.738.979a1.66 1.66 0 1 1-1.262-3.027l.047-.01c2.357-.552 4.562-1.747 6.09-3.47.782-.844 1.352-1.793 1.887-2.68.529-.895.987-1.795 1.33-2.784.342-.984.549-2.077.48-3.197-.062-1.118-.36-2.245-.831-3.305-.92-2.114-2.353-4.104-3.58-5.97l-.066-.1a1.636 1.636 0 0 1 2.528-2.053"/>
        <path fill="#472652" d="M220.07 178.155c1.87 5.317 3.587 10.767 5.555 16.096a83.915 83.915 0 0 0 1.566 3.966 78.613 78.613 0 0 0 1.716 3.9c1.204 2.573 2.593 5.053 3.97 7.52l4.24 7.305c1.411 2.424 2.832 4.837 4.422 7.13 1.58 2.296 3.39 4.442 5.48 6.214 2.074 1.763 4.45 3.195 6.951 3.763a1.639 1.639 0 1 1-.94 3.133c-2.994-1.12-5.525-2.874-7.795-4.813-2.282-1.94-4.265-4.126-6.213-6.333-1.915-2.23-3.744-4.547-5.286-7.028-1.548-2.477-2.949-5.037-4.134-7.689-1.225-2.631-2.323-5.313-3.445-7.972l-3.379-7.968c-2.24-5.32-4.373-10.666-5.847-16.302a1.636 1.636 0 0 1 3.124-.964l.014.042zM152.384 125.992c-4.222 3.015-8.333 6.508-12.122 10.192-3.789 3.714-7.344 7.682-10.428 11.995-.799 1.06-1.496 2.186-2.243 3.28-.665 1.145-1.399 2.25-2.009 3.425-1.313 2.298-2.412 4.708-3.378 7.16-1.974 4.896-3.08 10.09-3.545 15.285a61.343 61.343 0 0 0 .735 15.58c.977 5.189 2.153 10.37 3.88 15.388 1.707 5.02 4.024 9.844 6.916 14.28 1.44 2.222 2.995 4.37 4.727 6.358.866.99 1.745 1.972 2.692 2.875.923.894 1.934 1.826 2.881 2.504l.041.03a1.637 1.637 0 1 1-2.02 2.574c-1.17-1.003-2.1-1.96-3.066-2.993a76.912 76.912 0 0 1-2.736-3.14c-.865-1.08-1.716-2.168-2.503-3.302-.84-1.095-1.569-2.265-2.345-3.404-2.975-4.637-5.472-9.56-7.572-14.65a89.225 89.225 0 0 1-4.79-15.801c-1.058-5.483-1.247-11.158-.5-16.692 1.437-11.118 6.14-21.452 12.327-30.513a88.82 88.82 0 0 1 10.521-12.682c3.897-3.902 8.051-7.443 12.768-10.501a1.635 1.635 0 0 1 1.842 2.7l-.073.052z"/>
        <path fill="#472652" d="M241.752 119.487a1.629 1.629 0 0 0-2.3-.116l-.168.151c-.174.156-.613.507-.97.756-.402.26-.78.536-1.217.773-.829.507-1.725.957-2.613 1.406-1.824.84-3.683 1.647-5.617 2.306-3.84 1.372-7.813 2.482-11.845 3.38-8.05 1.867-16.31 3.01-24.6 3.642-2.08.154-4.117.284-6.315.495-2.153.266-4.319.594-6.429 1.214-1.068.263-2.098.66-3.14 1.02-1.016.432-2.05.834-3.026 1.364-1.97 1.01-3.875 2.197-5.58 3.63-3.444 2.837-6.224 6.424-8.24 10.337-.214.42-.419.846-.619 1.274-.125-2.719-.306-5.436-.6-8.153-.352-3.285-.89-6.564-1.724-9.817-.866-3.236-1.938-6.495-3.927-9.495a1.637 1.637 0 1 0-2.66 1.905l.015.018c1.802 2.334 2.96 5.304 3.816 8.316.456 1.506.767 3.07 1.075 4.629.233 1.579.502 3.15.65 4.748.36 3.181.521 6.397.512 9.615a106.87 106.87 0 0 1-.436 9.605 1.713 1.713 0 0 0 1.416 1.835 1.705 1.705 0 0 0 1.97-1.397l.02-.12c.31-1.83.881-3.835 1.554-5.685a40.719 40.719 0 0 1 2.435-5.435c1.873-3.488 4.303-6.636 7.25-9.207a27.724 27.724 0 0 1 4.793-3.38 28.277 28.277 0 0 1 5.422-2.363c1.882-.637 3.848-1.056 5.836-1.345 1.961-.234 4.096-.423 6.183-.621 8.373-.775 16.748-1.731 25.052-3.404 4.15-.832 8.274-1.9 12.314-3.328a52.597 52.597 0 0 0 5.97-2.493c.966-.514 1.94-1.008 2.875-1.624.474-.282.933-.635 1.396-.962.48-.377.871-.665 1.435-1.25a1.633 1.633 0 0 0 .037-2.224M145.746 236.993c.395.26.96.561 1.43.84l1.549.806c1.04.53 2.118 1.013 3.178 1.517l3.26 1.387 3.328 1.262c1.099.444 2.238.794 3.37 1.162l3.394 1.107c2.303.62 4.586 1.322 6.912 1.866 2.335.514 4.664 1.065 7.019 1.486 2.362.393 4.73.755 7.1 1.088 4.767.503 9.537.954 14.333 1.061 9.572.406 19.15.418 28.767.466 4.804-.13 9.608-.422 14.402-.798 2.39-.256 4.78-.548 7.166-.864 2.386-.296 4.768-.636 7.144-1.002l.065-.009a1.637 1.637 0 1 1 .367 3.251c-2.423.176-4.841.377-7.254.623-2.414.226-4.825.475-7.233.76-4.84.342-9.671.754-14.506 1.228l-7.28.43c-2.427.14-4.856.308-7.292.24-2.433-.015-4.867-.07-7.301-.127-2.433-.029-4.86-.338-7.287-.525-9.7-.887-19.35-2.268-28.893-4.323-2.388-.5-4.75-1.144-7.13-1.705-1.178-.327-2.35-.688-3.522-1.044-1.172-.357-2.35-.697-3.5-1.137-1.153-.42-2.317-.816-3.463-1.264l-3.404-1.453c-2.254-1.098-4.412-2.117-6.61-3.66a1.636 1.636 0 0 1 1.835-2.706l.056.037zM158.5 178.116a3.5 3.5 0 1 1-7 0 3.5 3.5 0 0 1 7 0M155.5 193.116a3.5 3.5 0 1 1-7 0 3.5 3.5 0 0 1 7 0"/>
        <path fill="#26AC67" d="M52.915 284.637s24.005-12.4 25.074-57.107c0 0-36.97 15.846-25.074 57.107"/>
        <path fill="#26AC67" d="M50.81 273.233s16.474-22.105-1.664-65.372c0 0-26.76 30.934 1.665 65.372"/>
        <path fill="#26AC67" d="M53.525 284.348s3.122-26.838-33.368-52.693c0 0-7.503 39.518 33.368 52.693"/>
        <path fill="#E46274" d="M364.5 211.616c0 17.12-13.88 31-31 31-17.121 0-31-13.88-31-31 0-17.121 13.879-31 31-31 17.12 0 31 13.879 31 31"/>
        <path fill="#472652" d="M370.918 200.343c-1.646-1.307-3.538-2.605-5.396-3.807-1.864-1.228-3.797-2.364-5.748-3.469-3.91-2.2-7.956-4.175-12.093-5.959-4.168-1.704-8.411-3.26-12.767-4.445l-1.63-.455-1.647-.388-3.294-.774c-2.206-.47-4.44-.808-6.654-1.218l1.175-.2a33.37 33.37 0 0 0-2.96 2.188c-.97.8-1.911 1.642-2.82 2.517a57.939 57.939 0 0 0-5.115 5.577 60.929 60.929 0 0 0-4.38 6.18 49.128 49.128 0 0 0-3.562 6.714c-1.023 2.327-1.912 4.727-2.541 7.206-.358 1.228-.564 2.494-.844 3.742-.168 1.27-.415 2.528-.51 3.808-.541 5.096-.355 10.28.49 15.347a1.637 1.637 0 1 1-3.244.416c-.477-5.338-.525-10.71-.002-16.05a65.732 65.732 0 0 1 1.312-7.946c.562-2.63 1.335-5.222 2.255-7.764 1.834-5.09 4.496-9.922 7.912-14.16a49.669 49.669 0 0 1 5.614-5.915c2.08-1.797 4.16-3.428 6.668-4.882l.062-.036c.349-.203.748-.25 1.113-.165 2.25.528 4.506 1.017 6.743 1.58l3.347.878 1.673.444 1.654.508 3.318.98c1.1.346 2.189.729 3.285 1.092 2.198.702 4.349 1.546 6.52 2.335 4.298 1.698 8.526 3.6 12.599 5.826 4.078 2.257 7.98 4.672 11.632 7.841a1.633 1.633 0 1 1-2.085 2.516l-.08-.063zM51.273 277.238a.5.5 0 0 1-.499-.469c-1.223-19.832 5.216-28.721 5.491-29.09a.5.5 0 0 1 .802.598c-.065.087-6.493 9.004-5.294 28.43a.5.5 0 0 1-.469.53l-.03.001"/>
    </g>
</svg>
