<svg xmlns="http://www.w3.org/2000/svg" xmlns:xlink="http://www.w3.org/1999/xlink" width="297" height="125" viewBox="0 0 297 125">
    <defs>
        <path id="a" d="M0 .821h68.573V72H0z"/>
        <path id="c" d="M.663.396h234.853V115H.663z"/>
    </defs>
    <g fill="none" fill-rule="evenodd">
        <path fill="#F7F2ED" d="M20.179 55.078c-.07-1.027 41.926-2.315 43.624-.005 1.698 2.31 1.473 48.114-3.916 49.462-5.39 1.347-1.347 15.368-10.777 16.642-9.431 1.274-23.093 19.395-28.931-66.1"/>
        <path fill="#EF8B60" d="M21.53 73.078s24 4 42 1l-1 21s-35 2-39-3l-2-19z"/>
        <path fill="#26AC67" d="M207.08 65.19h-64.126c-4.873 0-8.86-3.987-8.86-8.86 0-4.872 3.987-8.859 8.86-8.859h64.127c4.873 0 8.859 3.987 8.859 8.86 0 4.872-3.986 8.86-8.86 8.86M121.012 56.945c0 4.345-3.544 7.868-7.917 7.868-4.372 0-7.916-3.523-7.916-7.868 0-4.345 3.544-7.867 7.916-7.867 4.373 0 7.917 3.522 7.917 7.867M207.08 99.19h-64.126c-4.873 0-8.86-3.987-8.86-8.86 0-4.872 3.987-8.859 8.86-8.859h64.127c4.873 0 8.859 3.987 8.859 8.86 0 4.872-3.986 8.86-8.86 8.86M121.012 90.945c0 4.345-3.544 7.868-7.917 7.868-4.372 0-7.916-3.523-7.916-7.868 0-4.345 3.544-7.867 7.916-7.867 4.373 0 7.917 3.522 7.917 7.867"/>
        <path fill="#F5C847" d="M279.042 10.352c0 5.717-4.635 10.352-10.352 10.352-5.717 0-10.352-4.635-10.352-10.352C258.338 4.635 262.973 0 268.69 0c5.717 0 10.352 4.635 10.352 10.352"/>
        <g transform="translate(0 52.487)">
            <mask id="b" fill="#fff">
                <use xlink:href="#a"/>
            </mask>
            <path fill="#472652" d="M53.046 42.296l-2.415-.03c-.805-.032-1.608-.045-2.41-.032a98.208 98.208 0 0 0-4.817.147c-1.607.075-3.221.156-4.832.129a36.729 36.729 0 0 1-2.415-.101 38.896 38.896 0 0 1-2.41-.197c-2.88-.303-5.741-.723-8.615-1.01-.102-.675-.21-1.349-.298-2.026a146.729 146.729 0 0 1-.675-6.242c-.326-3.714-.616-7.431-1.124-11.125 3.053.534 6.113.766 9.183.945.914.037 1.826.096 2.737.164.912.046 1.824.097 2.736.17 1.823.114 3.647.328 5.479.405 1.83.14 3.666.127 5.5.055.916-.03 1.83-.137 2.744-.237a49.545 49.545 0 0 0 2.734-.345c3.334-.437 6.65-.888 10.002-1.241l-.627 5.567c-.475 4.184-.96 8.366-1.383 12.556l-.155 1.481c-2.93.651-5.93.983-8.94.967zM43.53 3.554c7.562-.101 15.124-.148 22.686-.134L64.43 19.249c-3.42.817-6.927 1.336-10.462 1.329-3.602-.009-7.178-.029-10.771.154a88.37 88.37 0 0 1-5.4.1 65.596 65.596 0 0 1-5.388-.367c-3.27-.364-6.541-.872-9.772-1.276a81.553 81.553 0 0 1-.482-3.292c-.171-1.523-.345-3.045-.44-4.576-.122-1.528-.151-3.067-.242-4.598a43.803 43.803 0 0 0-.162-2.294l-.057-.644c3.438-.015 6.875-.019 10.312-.075l11.964-.156zm19.773 49.122c.509-4.18.952-8.367 1.412-12.553.474-4.183.885-8.374 1.307-12.563l2.545-25.135v-.011a1.11 1.11 0 0 0-1.107-1.22c-7.976.023-15.953-.029-23.93-.135L31.566.903C27.576.837 23.589.844 19.6.821l-.123.004a1.477 1.477 0 0 0-1.358 1.587l.004.058c.06.764.169 1.523.275 2.283.099.759.203 1.519.344 2.273.248 1.515.557 3.022.773 4.54.244 1.514.409 3.037.575 4.56a74.13 74.13 0 0 1 .282 3.859c-.004.015-.014.026-.017.041-.05.224-.014.438.053.641l.003.048c.286 4.18.906 8.323 1.465 12.472a145.3 145.3 0 0 1 .71 6.238c.19 2.085.293 4.18.446 6.268a93.93 93.93 0 0 0 .589 6.252c.26 2.078.639 4.141.98 6.209.359 2.066.633 4.142.85 6.223a84.46 84.46 0 0 1 .417 4.821c-1.605.071-3.21.145-4.815.175-2.21.041-4.417.03-6.625-.018-4.417-.098-8.834-.256-13.25-.079a1.227 1.227 0 0 0 0 2.453c4.416.177 8.833.019 13.25-.079 2.208-.048 4.416-.058 6.625-.018 2.208.042 4.416.172 6.625.251 2.208.108 4.416.136 6.625.105 2.208-.03 4.416-.177 6.625-.288 2.208-.129 4.416-.173 6.625-.158a97.051 97.051 0 0 1 6.625.187 1.228 1.228 0 1 0 0-2.453 97.051 97.051 0 0 1-6.625.187c-2.21.015-4.417-.029-6.625-.158-2.21-.11-4.417-.258-6.625-.288-2.036-.029-4.072.001-6.108.089a85.665 85.665 0 0 1-.678-4.958 92.138 92.138 0 0 1-.536-6.258c-.122-2.093-.207-4.189-.407-6.273a95.396 95.396 0 0 0-.798-6.228c-.08-.525-.163-1.049-.246-1.573 2.666.404 5.36.564 8.046.685 1.635.074 3.267.16 4.9.267 1.63.11 3.264.291 4.904.375 3.277.257 6.572.047 9.825-.458 2.837-.405 5.67-.702 8.528-.946-.303 2.89-.603 5.782-.871 8.676a1.227 1.227 0 0 0 2.44.261z" mask="url(#b)"/>
        </g>
        <path fill="#472652" d="M108.459 59.506c.185-3.134 2.705-5.926 5.998-6.18 1.626-.138 3.32.502 4.481 1.7 1.16 1.206 1.723 2.871 1.67 4.48-.05 1.622-.743 3.152-1.845 4.306-1.111 1.145-2.663 1.884-4.306 1.924a5.877 5.877 0 0 1-4.418-1.812c-1.142-1.195-1.666-2.85-1.58-4.418m2.749 7.841a9.189 9.189 0 0 0 3.249.685c2.227.053 4.512-.796 6.128-2.398 1.645-1.572 2.541-3.88 2.477-6.128-.04-2.26-1.065-4.434-2.652-5.954-1.566-1.549-3.71-2.498-5.953-2.622-2.234-.125-4.606.675-6.268 2.308-1.673 1.608-2.613 3.974-2.491 6.268.073 2.302 1.137 4.485 2.742 6.016a9.224 9.224 0 0 0 2.768 1.825"/>
        <path fill="#472652" d="M114.457 62.652a3.146 3.146 0 1 0 0-6.292 3.146 3.146 0 0 0 0 6.292M135.258 65.517l.018-1.572.036-3.145.07-6.288.019-1.572c-.004-.399.073-.599.206-.87a1.586 1.586 0 0 1 1.39-.796c4.193.053 8.385.086 12.577.091 4.193.014 8.385.042 12.578.003 8.384-.018 16.769-.166 25.154-.278 8.385-.109 16.769-.184 25.154-.13l1.572.004c.51.01 1.122-.016 1.367.04a1.87 1.87 0 0 1 1.407 1.26c.039.16.08.318.078.486.01.18.002.501.003.745l-.01 1.572-.025 3.144-.051 6.288-.013 1.573c.006.411-.075.647-.22.94a1.74 1.74 0 0 1-1.518.88c-16.77-.167-33.54.006-50.31.064-8.383.001-16.768.105-25.153.02l-1.572-.008c-.511-.01-1.128.012-1.352-.043a1.78 1.78 0 0 1-1.334-1.205c-.036-.152-.076-.304-.072-.462-.008-.172-.001-.499 0-.74zm-2.43-4.717l.036 3.145.018 1.572.012.831c.008.366.086.731.19 1.083a4.122 4.122 0 0 0 3.145 2.773c.812.123 1.25.047 1.786.064l1.572-.009c8.385-.085 16.77.02 25.154.021 16.77.057 33.539.23 50.309.065 1.494.001 2.94-.874 3.63-2.186.346-.634.515-1.45.486-2.087l-.012-1.573-.051-6.288-.026-3.144-.01-1.572c-.003-.28.005-.483-.008-.828a4.071 4.071 0 0 0-.184-1.059 4.03 4.03 0 0 0-3.073-2.718c-.79-.122-1.236-.05-1.77-.068l-1.572.005c-8.385.054-16.77-.02-25.154-.13-8.385-.112-16.77-.26-25.154-.279-4.193-.038-8.385-.01-12.578.004-4.192.005-8.384.038-12.577.091-1.55 0-3.047.91-3.758 2.27a4.396 4.396 0 0 0-.5 2.157l.017 1.572.072 6.288zM120.52 87.442c-.71-.868-1.605-1.65-2.67-2.125a6.81 6.81 0 0 0-3.392-.57c-1.148.081-2.248.434-3.257.9a11.112 11.112 0 0 0-2.773 1.83c-1.65 1.478-2.766 3.752-2.575 6.03a1.23 1.23 0 0 0 2.449.032l.003-.033c.177-1.593.65-3.157 1.746-4.405a4.77 4.77 0 0 1 2.016-1.367c.774-.277 1.606-.304 2.39-.226a10.9 10.9 0 0 1 2.254.554c.72.265 1.46.576 2.117 1.073 1.325.971 2.07 2.748 1.78 4.371a1.245 1.245 0 1 0 2.461.066l-.008-.066c-.277-2.248-1.12-4.308-2.54-6.064M219.017 89.504l-.001-1.78v-.89a4.295 4.295 0 0 0-.177-1.186c-.462-1.557-1.956-2.72-3.578-2.785l-3.617-.042c-2.375-.035-4.75-.053-7.124-.125-4.75-.11-9.5-.259-14.248-.277-2.375-.039-4.75-.01-7.124.003-2.375.005-4.75.04-7.124.091-9.5.21-18.998.343-28.497.232l-7.124-.068-3.628-.023c-1.708.056-3.298 1.272-3.8 2.922a4.595 4.595 0 0 0-.196 1.257l-.008.89-.004 1.781.013 3.562c.005 2.375.013 4.75.063 7.124a1.23 1.23 0 0 0 1.2 1.201 1.225 1.225 0 0 0 1.253-1.2c.05-2.375.059-4.75.064-7.125l.012-3.562-.003-1.78-.008-.89c.003-.18.02-.337.065-.5.18-.644.8-1.15 1.482-1.185l3.495-.039 7.124-.068c9.499-.11 18.998.022 28.497.232 2.374.053 4.749.086 7.124.091 2.374.014 4.749.042 7.124.003 4.749-.018 9.499-.166 14.248-.278 2.375-.07 4.749-.088 7.124-.124 1.163-.012 2.43-.045 3.507-.026.767.027 1.483.585 1.703 1.322.054.185.079.37.085.571v.89l-.001 1.781-.041 3.562a313.37 313.37 0 0 1-.147 7.124v.076a1.228 1.228 0 0 0 2.454-.076 315.701 315.701 0 0 1-.146-7.124l-.041-3.562zM34.885 28.95c1.206 1.3 2.62 2.22 4.07 2.963 1.37.723 2.678 1.37 3.835 2.274 1.14.886 2.12 1.977 2.584 3.159.465 1.188.284 2.335-.355 3.397-.625 1.046-1.732 2.041-2.778 2.78l-.09.063a1.226 1.226 0 0 0 1.28 2.084 9.857 9.857 0 0 0 2.156-1.535c.635-.604 1.23-1.291 1.67-2.121.445-.819.763-1.77.797-2.758.035-.986-.195-1.956-.573-2.8-.792-1.681-2-2.917-3.233-4.012-1.224-1.097-2.571-2.085-3.874-2.942-1.225-.823-2.402-1.677-3.361-2.613-.956-.931-1.74-1.92-1.803-3.04-.117-1.125.613-2.364 1.625-3.325a10.903 10.903 0 0 1 3.623-2.245l.045-.017a1.233 1.233 0 1 0-1.063-2.215c-1.497.89-2.796 1.813-4.036 3a10.239 10.239 0 0 0-1.654 2.035c-.467.777-.824 1.7-.91 2.7a5.803 5.803 0 0 0 .518 2.89 8.334 8.334 0 0 0 1.527 2.279M270.149 9.639a10.022 10.022 0 0 0 3.84 3.928 10.02 10.02 0 0 0-3.84 3.927 10.027 10.027 0 0 0-3.841-3.928 10.03 10.03 0 0 0 3.84-3.928m-9.938 4.085c.002.024 0 .047.004.071.002.013.01.024.012.035.027.159.08.307.154.445.012.024.026.045.04.066.08.132.175.252.291.354.015.011.031.021.046.033.123.1.26.187.414.245h.002c.094.035.192.062.294.077 3.415.527 5.646 2.288 6.632 5.236.373 1.116.5 2.204.535 3.05-.007.302-.007.592.005.873a8.851 8.851 0 0 1-.046.715 1.5 1.5 0 0 0 1.49 1.702c.022 0 .042-.012.065-.012s.043.012.066.012a1.5 1.5 0 0 0 1.488-1.706 8.306 8.306 0 0 1-.05-.582c.02-.386.02-.791.004-1.215.132-2.59 1.222-7.155 7.173-8.073.103-.015.202-.042.296-.077.154-.058.29-.144.414-.245.016-.011.031-.021.047-.034.115-.101.21-.221.291-.352.013-.022.027-.043.04-.067.075-.137.126-.286.154-.444.001-.012.01-.023.011-.036.005-.024.002-.048.005-.072a1.613 1.613 0 0 0 0-.313c-.002-.024 0-.046-.005-.072-.002-.02-.012-.04-.015-.062a1.464 1.464 0 0 0-.043-.16c-.014-.043-.026-.085-.045-.124a1.24 1.24 0 0 0-.068-.143c-.022-.039-.043-.078-.07-.115a1.225 1.225 0 0 0-.094-.123c-.028-.034-.055-.067-.087-.098a1.61 1.61 0 0 0-.488-.328 1.498 1.498 0 0 0-.293-.088c-.017-.002-.033-.01-.05-.012-3.413-.527-5.644-2.288-6.63-5.237-.374-1.115-.502-2.204-.536-3.05a13.24 13.24 0 0 0-.005-.873c.012-.421.042-.696.046-.713a1.5 1.5 0 0 0-1.281-1.688c-.079-.012-.154-.01-.23-.01-.014 0-.029 0-.043-.002l-.046.002c-.077 0-.152-.002-.23.01a1.5 1.5 0 0 0-1.28 1.69c.007.05.033.265.05.583-.02.385-.02.792-.002 1.215-.133 2.59-1.224 7.154-7.175 8.073-.015.002-.03.01-.046.013a1.408 1.408 0 0 0-.45.162c-.036.02-.07.04-.103.061a1.52 1.52 0 0 0-.127.098 1.175 1.175 0 0 0-.2.2c-.03.037-.058.072-.084.11a1.56 1.56 0 0 0-.226.547c-.005.021-.014.041-.017.063-.003.024-.002.048-.003.072a1.204 1.204 0 0 0-.009.156c0 .053.002.105.009.157"/>
        <g transform="translate(61 9.487)">
            <mask id="d" fill="#fff">
                <use xlink:href="#c"/>
            </mask>
            <path fill="#472652" d="M191.912 112.355c-10.917-.087-21.834-.235-32.75-.08-5.598.26-11.196.244-16.794.03-2.799-.11-5.598-.257-8.396-.287a166.755 166.755 0 0 0-8.397.105c-5.598.21-11.196.343-16.793.232-5.599-.097-11.196-.255-16.794-.08-12.2.26-24.399.244-36.599.03-6.1-.111-12.2-.26-18.3-.277-3.05-.04-6.1-.011-9.15.004-3.049.005-6.099.038-9.149.09l-9.15.139-4.575.064-.547.002a1.566 1.566 0 0 1-.919-.306 1.583 1.583 0 0 1-.647-1.118l-.044-4.47.002-.27c.006-.057.002-.115.011-.171a1.642 1.642 0 0 1 .423-.913 1.634 1.634 0 0 1 1.218-.533l9.15.038c12.2.087 24.4.235 36.6.079 3.24-.146 6.478-.204 9.717-.187 1.62-.008 3.24.003 4.86.049 1.62.024 3.24.077 4.86.147 3.238.12 6.478.266 9.718.263 3.017.016 6.036-.067 9.054-.16l1.18 1.64.053.077c.218.298.575.486.972.47 1.865-.071 3.73-.077 5.593-.113 1.864-.038 3.73-.003 5.593-.008l11.187.168c.401.003.804-.187 1.048-.542l.017-.025 1.166-1.703c2.085 0 4.17-.01 6.254-.076 10.917-.26 21.834-.243 32.751-.03 5.458.112 10.917.26 16.375.278 2.73.039 5.46.01 8.188-.003 2.73-.005 5.458-.04 8.188-.091l8.187-.14 4.054-.06c.79-.011 1.522.686 1.55 1.493l.04 4.04v.512c-.005.173-.002.227-.023.342a1.626 1.626 0 0 1-.202.57 1.652 1.652 0 0 1-.738.664c-.368.013-.735.016-1.103.038a1.23 1.23 0 0 0-.444.115h-.354l-2.047-.003-4.094-.033zM17.896 90.407a148.094 148.094 0 0 1-.018-6.323c.041-2.107.172-4.215.251-6.322.108-2.108.136-4.216.104-6.323-.03-2.107-.177-4.215-.288-6.322a93.982 93.982 0 0 1-.158-6.323 87.838 87.838 0 0 1 .188-6.323c.051-3.427.058-6.854.063-10.281.011-3.427.024-6.854-.01-10.281l-.069-10.281-.033-5.14-.01-2.571-.005-1.285c-.005-.434-.005-.862.021-1.222.098-3.046 1.968-5.922 4.654-7.362 1.36-.695 2.834-1.103 4.423-1.046l5.14.036c6.854.023 13.708.17 20.562.242 3.428.054 6.854.075 10.281.084 3.427.02 6.855.034 10.281-.003 6.854-.016 13.708-.173 20.562-.28 13.71-.207 27.417-.22 41.125.036 6.207.153 12.415.019 18.622-.068a351.485 351.485 0 0 1 18.623.18l4.656.117a8.507 8.507 0 0 1 3.863.876c1.195.549 2.286 1.368 3.108 2.416.846 1.024 1.49 2.239 1.8 3.558.143.68.237 1.295.242 2.07l.018 2.327.038 4.656.045 9.312.064 37.245c-.023 12.079-.065 24.157-.182 36.236-2.319-.04-4.639-.073-6.959-.077-2.729-.015-5.459-.043-8.188-.004-5.458.018-10.917.166-16.375.278-10.917.213-21.834.229-32.75-.03-2.316-.072-4.63-.08-6.944-.08h-.02a1.286 1.286 0 0 0-1.064.579l-1.155 1.745-10.49.158c-1.864-.005-3.729.03-5.593-.008-1.633-.031-3.266-.046-4.9-.096l-1.137-1.81a1.257 1.257 0 0 0-1.016-.581l-.082-.002c-3.239-.1-6.478-.194-9.717-.176-3.24-.004-6.48.142-9.719.262-1.62.07-3.239.123-4.859.148-1.62.046-3.24.057-4.86.049a193.29 193.29 0 0 1-9.718-.188c-10.772-.138-21.544-.04-32.317.046.127-3.95-.007-7.9-.098-11.848zm216.283 21.869a52.729 52.729 0 0 1-8.832.03c-1.472-.111-2.945-.258-4.416-.288a46.167 46.167 0 0 0-4.416.105c-1.472.078-2.944.209-4.416.25a72.245 72.245 0 0 1-4.416-.018c-1.619-.053-3.238-.12-4.857-.145.115-.281.21-.571.254-.871.043-.22.045-.511.048-.677v-.512l.028-4.147a3.892 3.892 0 0 0-1.138-2.598 3.895 3.895 0 0 0-2.61-1.141l-4.135-.07-6.976-.118c-.116-12.09-.159-24.18-.18-36.27l.063-37.245.045-9.312.037-4.656.018-2.327c.007-.368-.003-.83-.012-1.26 0-.436-.085-.867-.129-1.303a11.307 11.307 0 0 0-2.043-4.828c-1.06-1.424-2.48-2.574-4.08-3.36A11.49 11.49 0 0 0 176.86.434l-4.656.116c-6.207.223-12.415.287-18.623.18-6.207-.085-12.415-.22-18.622-.066-13.708.256-27.416.242-41.125.035C86.981.593 80.127.435 73.273.419a617.38 617.38 0 0 0-10.28-.003C59.564.425 56.138.446 52.71.5 45.857.57 39.003.72 32.15.743l-5.14.036a11.562 11.562 0 0 0-5.476 1.292C18.156 3.84 15.78 7.44 15.62 11.286l-.15 20.623c-.036 3.427-.022 6.854-.01 10.28.004 3.428.011 6.855.062 10.282.136 2.108.204 4.216.188 6.323a92.677 92.677 0 0 1-.158 6.323c-.11 2.107-.258 4.215-.288 6.322a95.268 95.268 0 0 0 .105 6.323c.078 2.107.21 4.215.25 6.322.041 2.108.031 4.215-.018 6.323-.09 3.956-.226 7.91-.097 11.867l-1.79.014-9.15.038a3.863 3.863 0 0 0-3.838 3.407c-.017.133-.018.266-.025.399l-.003.302-.017 2.287-.01 1.144-.004.572-.003.286.016.39a3.897 3.897 0 0 0 1.522 2.759 3.896 3.896 0 0 0 2.267.8l.597.009 4.575.064 9.15.138c3.05.053 6.1.086 9.15.092 3.05.014 6.1.042 9.15.003 6.1-.018 12.2-.166 18.3-.278 12.2-.213 24.398-.23 36.598.03 5.598.177 11.195.018 16.794-.08 5.597-.11 11.195.023 16.793.233 2.8.109 5.598.137 8.397.105 2.798-.03 5.597-.177 8.396-.288 5.598-.213 11.196-.23 16.794.03 10.916.156 21.833.008 32.75-.08l4.094-.032 2.047-.002.366-.001c.134.06.277.105.432.115 2.944.177 5.888.018 8.832-.08a72.245 72.245 0 0 1 4.416-.017c1.472.04 2.944.172 4.416.25 1.472.109 2.944.137 4.416.105 1.471-.03 2.944-.177 4.416-.288a52.835 52.835 0 0 1 8.832.03 1.232 1.232 0 1 0 0-2.454z" mask="url(#d)"/>
        </g>
        <path fill="#472652" d="M107.983 35.668a1.228 1.228 0 0 0 1.573-.737c.758-2.093 1.352-4.235 1.924-6.383.227.812.436 1.63.647 2.449a1.282 1.282 0 0 0 2.346.33l.092-.157c.517-.88 1.036-1.756 1.507-2.658.107.42.206.844.293 1.27.354 1.662.664 3.333.814 5.037a1.234 1.234 0 1 0 2.406-.482c-.517-1.63-.874-3.291-1.186-4.962-.33-1.667-.464-3.374-.669-5.066a1.332 1.332 0 0 0-2.454-.545l-.124.199a30.042 30.042 0 0 0-1.606 2.948c-.04.08-.074.167-.114.249-.36-.968-.668-1.954-.99-2.935a1.117 1.117 0 0 0-2.121.001l-.01.03c-1.085 3.309-2.29 6.58-3.104 9.97-.145.6.182 1.227.776 1.442M134.53 30.305c1.798.177 3.595.018 5.393-.08a24.009 24.009 0 0 1 2.696-.018c.9.043 1.798.172 2.696.252a17.5 17.5 0 0 0 2.696.105c.9-.03 1.798-.177 2.697-.288 1.798-.23 3.595-.241 5.392.029a1.24 1.24 0 1 0 0-2.453c-1.797.268-3.594.258-5.392.029-.899-.111-1.798-.259-2.697-.288a17.5 17.5 0 0 0-2.696.105c-.898.078-1.797.209-2.696.25-.899.046-1.797.038-2.696-.018-1.798-.098-3.595-.256-5.393-.078a1.233 1.233 0 0 0 0 2.453M165.245 30.805c1.797-.27 3.595-.26 5.393-.03.898.112 1.797.259 2.696.289.898.03 1.798.003 2.696-.105.9-.08 1.798-.21 2.696-.252a24.027 24.027 0 0 1 2.697.018c1.798.098 3.595.256 5.392.08a1.233 1.233 0 0 0 0-2.453c-1.797-.178-3.594-.02-5.392.078-.899.056-1.798.064-2.697.018-.898-.041-1.797-.172-2.696-.25a17.496 17.496 0 0 0-2.696-.105c-.899.03-1.798.177-2.696.288-1.798.23-3.596.24-5.393-.03a1.24 1.24 0 1 0 0 2.453M195.96 30.805c1.797.177 3.595.018 5.393-.08a24.007 24.007 0 0 1 2.696-.018c.898.043 1.797.172 2.696.252a17.5 17.5 0 0 0 2.696.105c.899-.03 1.798-.177 2.697-.288 1.797-.23 3.594-.241 5.392.029a1.24 1.24 0 1 0 0-2.453c-1.798.268-3.595.258-5.392.029-.899-.111-1.798-.259-2.697-.288a17.5 17.5 0 0 0-2.696.105c-.899.078-1.798.209-2.696.25-.899.046-1.798.038-2.696-.018-1.798-.098-3.596-.256-5.393-.078a1.232 1.232 0 0 0 0 2.453"/>
    </g>
</svg>
