<svg xmlns="http://www.w3.org/2000/svg" xmlns:xlink="http://www.w3.org/1999/xlink" width="141" height="28" viewBox="0 0 141 28">
    <defs>
        <path id="a" d="M.414.445h10.943v16.368H.414z"/>
        <path id="c" d="M0 .206h29.8v27.136H0z"/>
    </defs>
    <g fill="none" fill-rule="evenodd">
        <path fill="#364156" d="M53.165 6.068h2.344v16.368h-2.622v-10.16l-4.343 10.16h-1.956L42.221 12.39v10.047H39.6V6.068h2.345l5.631 12.805zM59.324 22.436h2.966V6.068h-2.966zM79.716 13.586v7.86c-.752.37-1.656.66-2.713.875a16.195 16.195 0 0 1-3.241.323c-1.686 0-3.15-.338-4.392-1.012a6.817 6.817 0 0 1-2.85-2.897c-.659-1.256-.99-2.758-.99-4.506 0-1.716.331-3.203.99-4.46a6.874 6.874 0 0 1 2.815-2.897c1.219-.673 2.65-1.01 4.288-1.01 1.15 0 2.227.168 3.23.504 1.005.337 1.844.813 2.518 1.426l-1.01 2.16c-.768-.596-1.519-1.026-2.254-1.286a7.209 7.209 0 0 0-2.415-.392c-1.685 0-2.96.506-3.827 1.518s-1.3 2.49-1.3 4.437c0 2.008.446 3.52 1.333 4.54.89 1.02 2.214 1.53 3.979 1.53 1.073 0 2.13-.147 3.173-.437v-4.139h-3.542v-2.137h6.208zM89.877 13.333c1.119 0 1.947-.207 2.484-.621.534-.415.804-1.042.804-1.886 0-.828-.266-1.444-.794-1.85-.528-.407-1.359-.61-2.494-.61h-3.7v4.967h3.7zm6.874 9.103h-3.127l-2.092-5.448c-.184-.507-.467-.858-.85-1.058-.382-.199-.882-.299-1.494-.299h-2.966v6.805h-2.943V6.068h7.013c1.853 0 3.263.405 4.229 1.218.967.812 1.449 1.977 1.449 3.494 0 1.089-.288 2.013-.861 2.772-.576.757-1.393 1.298-2.45 1.62.965.2 1.664.873 2.092 2.023l2 5.241zM103.304 16.298h6.024l-3.013-7.011-3.01 7.01zm8.645 6.139l-1.634-3.84h-8l-1.655 3.84h-2.988l7.402-16.37h2.414l7.425 16.37h-2.964zM118.729 22.436V8.504h-5.333V6.068h13.677v2.436h-5.355v13.932z"/>
        <g transform="translate(128.936 5.623)">
            <mask id="b" fill="#fff">
                <use xlink:href="#a"/>
            </mask>
            <path fill="#364156" d="M.414 16.813V.445h10.944V2.79H3.313v4.529h7.56v2.345h-7.56v4.804h8.045v2.345z" mask="url(#b)"/>
        </g>
        <g>
            <mask id="d" fill="#fff">
                <use xlink:href="#c"/>
            </mask>
            <path fill="#364156" d="M22.185 13.624c1.256-2.86.147-6.124-1.287-8.483 2.149.53 5.165 1.865 6.803 5.246-.659.74-2.375 2.336-5.516 3.237m-13.004.574c-2.037-1.018-3.267-2.493-3.653-4.382-.416-2.035.279-4.175 1.18-5.237.933-1.1 2.794-1.986 5.15-1.986 1.847 0 4 .547 6.248 1.966.684.828 4.808 6.118 1.372 9.673-.998.364-6.133 2.049-10.297-.034m20.544-4.042c-2.566-6.142-8.672-7.118-10.654-7.273-1.544-.964-3.08-1.585-4.555-1.921-.013-.006-.023-.016-.037-.02C8.37-.949 3.942 1.104 1.84 3.656c-3.149 3.825-1.592 8.826-.217 13.239.13.415.258.825.38 1.23a.97.97 0 1 0 1.857-.562c-.123-.409-.253-.824-.384-1.245C2.188 12.182.856 7.906 3.34 4.89c.223-.272.835-.937 1.873-1.545-1.16 1.383-2.148 4.107-1.586 6.859.353 1.72 1.451 4.11 4.687 5.729 1.855.926 3.824 1.235 5.623 1.235.689 0 1.352-.047 1.975-.12.09.139.195.297.316.478.61.921 1.083 1.679 1.448 2.3-.985-.16-2.156 0-3.5.482-2.595.932-4.725 2.272-6.436 3.35-1.407.885-2.621 1.65-3.427 1.75a.97.97 0 0 0 .241 1.925c1.233-.153 2.551-.982 4.219-2.034 1.632-1.027 3.663-2.305 6.057-3.165 1.413-.506 2.51-.566 3.17-.169.595.358.697 1.016.7 1.03a.97.97 0 0 0 1.825.336c.673-1.3-.414-3.434-2.53-6.644 1.171-.271 2-.573 2.284-.683 6.618-.95 9.25-4.773 9.36-4.936a.971.971 0 0 0 .087-.913" mask="url(#d)"/>
            <path fill="#364156" d="M15.298 6.145a.97.97 0 0 0-1.27.517c-.075.178-.475.877-1.066 1.055-.414.125-.924-.011-1.515-.405a.97.97 0 0 0-1.077 1.614c.778.52 1.537.78 2.27.78.298 0 .592-.044.88-.13 1.543-.465 2.224-1.988 2.296-2.161a.969.969 0 0 0-.518-1.27" mask="url(#d)"/>
        </g>
    </g>
</svg>
